<svg width="2746" height="984" viewBox="0 0 2746 984" fill="none" xmlns="http://www.w3.org/2000/svg">
<g filter="url(#filter0_i)">
<path d="M4.01944 188.012H694.014C727.432 188.012 760.205 178.817 788.745 161.432V161.432C829.972 136.32 879.483 128.605 926.397 139.982L1075.96 176.254C1106.22 183.593 1138.14 175.206 1160.89 153.94V153.94C1190.34 126.404 1234.24 121.131 1269.38 140.91L1292.81 154.102C1330.44 175.287 1376.18 176.261 1414.68 156.698L1660.31 31.8892C1757.86 -17.6817 1875.06 -7.85475 1963 57.2703V57.2703L2746 57.5V984H0L4.01944 188.012Z" fill="url(#paint0_linear)" fill-opacity="0.6"/>
</g>
<defs>
<filter id="filter0_i" x="0" y="0.557373" width="2780" height="1016.44" filterUnits="userSpaceOnUse" color-interpolation-filters="sRGB">
<feFlood flood-opacity="0" result="BackgroundImageFix"/>
<feBlend mode="normal" in="SourceGraphic" in2="BackgroundImageFix" result="shape"/>
<feColorMatrix in="SourceAlpha" type="matrix" values="0 0 0 0 0 0 0 0 0 0 0 0 0 0 0 0 0 0 127 0" result="hardAlpha"/>
<feOffset dx="34" dy="33"/>
<feGaussianBlur stdDeviation="18"/>
<feComposite in2="hardAlpha" operator="arithmetic" k2="-1" k3="1"/>
<feColorMatrix type="matrix" values="0 0 0 0 0 0 0 0 0 0 0 0 0 0 0 0 0 0 0.25 0"/>
<feBlend mode="normal" in2="shape" result="effect1_innerShadow"/>
</filter>
<linearGradient id="paint0_linear" x1="1239.5" y1="57.2703" x2="1239.5" y2="983.999" gradientUnits="userSpaceOnUse">
<stop stop-color="#333333"/>
<stop offset="1" stop-color="#C4C4C4" stop-opacity="0"/>
</linearGradient>
</defs>
</svg>
