<svg xmlns="http://www.w3.org/2000/svg" width="54" height="54" viewBox="0 0 54 54">
  <defs>
    <style>
      .cls-1 {
        fill: #cccccc;
        fill-rule: evenodd;
      }
    </style>
  </defs>
  <path id="cloud" class="cls-1" d="M244.292,235.531c2.957-2.848,6.472-7.5,4.706-11.779-0.721-1.745-1.317-2.972-2.875-3.833-3.745-2.072-9.42,1.231-12-2.209-2.668-3.558-.216-9.138,2.334-11.083a10.81,10.81,0,0,1,4.208-1.833,12.741,12.741,0,0,1,5.916.375l1.834,0.542c-2.045-2.014-3.426-7.369-1.334-10.333a7.971,7.971,0,0,1,2.667-2.167l1.208-.375a6.586,6.586,0,0,1,2.378.4A27.005,27.005,0,0,1,244.292,235.531Zm7.572-43.846c-2.788.294-5.659,1.681-6.116,3.693-1.324-.248-2.8-1.751-5.083-1.084-1.286.377-4.53,2.13-5.792,1.542a3.349,3.349,0,0,1-1.458-2.167c-0.249-.687.131-1.584-0.125-2.166a10.193,10.193,0,0,0-2.417-3.5c-1.552-1.381-3.418-1.495-5.666-2.292l-1.572-.042A27.029,27.029,0,0,1,251.864,191.685Zm-31.475-4.563a6.142,6.142,0,0,0,.693-0.2c0.412-.15.907,0.046,1.208-0.125,4.954-.024,7.957,1.3,9.417,4.709,0.7,1.647.415,4.379,1.833,5.333,2.986,2.009,6.843-2.738,10.166-1.208,1.9,0.872.092,2.893,0.709,4.958a11.66,11.66,0,0,0,1.458,2.75c-5.657-.667-10.183.783-12.458,4.125-0.3.445-1.564,3.917-1.625,3.958h-0.042c-0.93-3.008-3.824-4.093-6.791-5.167-1.1-.4-2.776.157-3.625,0.25-1.514-2.9-7.548-7.763-12.083-5.208a10.735,10.735,0,0,0-1.866,1.155A27.083,27.083,0,0,1,220.389,187.122ZM209.374,202.5c4.153-2.021,10.39,2.684,10.875,5.667,5.848-.7,8.925,1.377,10.749,5.333,1.191,2.582.015,4.369,2.417,6.167,3.572,2.672,9.133-.568,12.416,1.708,1.608,1.114,2.4,4.634,1.459,7.125a20.018,20.018,0,0,1-6.372,8.317,27.017,27.017,0,0,1-34.406-31.071A5.764,5.764,0,0,1,209.374,202.5Z" transform="translate(-206 -184)"/>
</svg>
