<svg width="26" height="23" viewBox="0 0 26 23" fill="none" xmlns="http://www.w3.org/2000/svg">
<g clip-path="url(#clip0)">
<path d="M19.6354 7.00298C19.1615 6.72835 18.5521 6.72835 18.0104 7.00298L14.2187 9.26865L11.6458 10.7104L7.92187 12.9761C7.44792 13.2507 6.83854 13.2507 6.29687 12.9761L3.38542 11.191C2.91146 10.9164 2.57292 10.3672 2.57292 9.74925V6.31641C2.57292 5.76716 2.84375 5.2179 3.38542 4.87462L6.29687 3.1582C6.77083 2.88357 7.38021 2.88357 7.92187 3.1582L10.8333 4.94328C11.3073 5.2179 11.6458 5.76716 11.6458 6.38507V8.65074L14.2187 7.14029V4.80596C14.2187 4.25671 13.9479 3.70745 13.4062 3.36417L7.98958 0.137306C7.51562 -0.137321 6.90625 -0.137321 6.36458 0.137306L0.8125 3.43283C0.270833 3.70745 0 4.25671 0 4.80596V11.2597C0 11.8089 0.270833 12.3582 0.8125 12.7015L6.29687 15.9284C6.77083 16.203 7.38021 16.203 7.92187 15.9284L11.6458 13.7313L14.2187 12.2209L17.9427 10.0239C18.4167 9.74925 19.026 9.74925 19.5677 10.0239L22.4792 11.7403C22.9531 12.0149 23.2917 12.5642 23.2917 13.1821V16.6149C23.2917 17.1642 23.0208 17.7134 22.4792 18.0567L19.6354 19.7731C19.1615 20.0478 18.5521 20.0478 18.0104 19.7731L15.099 18.0567C14.625 17.7821 14.2865 17.2328 14.2865 16.6149V14.4179L11.7135 15.9284V18.194C11.7135 18.7433 11.9844 19.2925 12.526 19.6358L18.0104 22.8627C18.4844 23.1373 19.0937 23.1373 19.6354 22.8627L25.1198 19.6358C25.5937 19.3612 25.9323 18.8119 25.9323 18.194V11.6716C25.9323 11.1224 25.6615 10.5731 25.1198 10.2298L19.6354 7.00298Z" fill="#8247E5"/>
</g>
<defs>
<clipPath id="clip0">
<rect width="26" height="23" fill="white"/>
</clipPath>
</defs>
</svg>
