<svg width="59" height="59" viewBox="0 0 59 59" fill="none" xmlns="http://www.w3.org/2000/svg">
<path d="M6.45313 20.2813C5.90614 20.2812 5.37143 20.4435 4.91663 20.7473C4.46182 21.0512 4.10735 21.4832 3.89802 21.9885C3.6887 22.4939 3.63393 23.0499 3.74064 23.5864C3.84735 24.1229 4.11075 24.6157 4.49753 25.0025C4.88431 25.3892 5.3771 25.6526 5.91358 25.7594C6.45006 25.8661 7.00613 25.8113 7.51148 25.602C8.01684 25.3927 8.44877 25.0382 8.75266 24.5834C9.05655 24.1286 9.21875 23.5939 9.21875 23.0469C9.21793 22.3136 8.92629 21.6107 8.40781 21.0922C7.88933 20.5737 7.18636 20.2821 6.45313 20.2813ZM6.45313 23.9687C6.2708 23.9687 6.09256 23.9147 5.94096 23.8134C5.78936 23.7121 5.6712 23.5681 5.60142 23.3997C5.53165 23.2312 5.51339 23.0459 5.54896 22.867C5.58454 22.6882 5.67234 22.5239 5.80126 22.395C5.93019 22.2661 6.09445 22.1783 6.27328 22.1427C6.4521 22.1071 6.63746 22.1254 6.80591 22.1952C6.97436 22.2649 7.11834 22.3831 7.21964 22.5347C7.32093 22.6863 7.375 22.8645 7.375 23.0469C7.37473 23.2913 7.27751 23.5256 7.10469 23.6984C6.93186 23.8713 6.69754 23.9685 6.45313 23.9687Z" fill="white"/>
<path d="M26.7344 20.2812H19.3594C19.1149 20.2812 18.8804 20.3784 18.7075 20.5513C18.5346 20.7241 18.4375 20.9586 18.4375 21.2031C18.4375 21.4476 18.5346 21.6821 18.7075 21.855C18.8804 22.0279 19.1149 22.125 19.3594 22.125H26.7344C26.9789 22.125 27.2134 22.0279 27.3862 21.855C27.5591 21.6821 27.6562 21.4476 27.6562 21.2031C27.6562 20.9586 27.5591 20.7241 27.3862 20.5513C27.2134 20.3784 26.9789 20.2812 26.7344 20.2812Z" fill="white"/>
<path d="M26.7344 23.0469H24.8906C24.6461 23.0469 24.4116 23.144 24.2388 23.3169C24.0659 23.4898 23.9688 23.7243 23.9688 23.9688C23.9688 24.2132 24.0659 24.4477 24.2388 24.6206C24.4116 24.7935 24.6461 24.8906 24.8906 24.8906H26.7344C26.9789 24.8906 27.2134 24.7935 27.3862 24.6206C27.5591 24.4477 27.6562 24.2132 27.6562 23.9688C27.6562 23.7243 27.5591 23.4898 27.3862 23.3169C27.2134 23.144 26.9789 23.0469 26.7344 23.0469Z" fill="white"/>
<path d="M16.5938 20.2812H15.6719C15.4274 20.2812 15.1929 20.3784 15.02 20.5513C14.8471 20.7241 14.75 20.9586 14.75 21.2031C14.75 21.4476 14.8471 21.6821 15.02 21.855C15.1929 22.0279 15.4274 22.125 15.6719 22.125H16.5938C16.8382 22.125 17.0727 22.0279 17.2456 21.855C17.4185 21.6821 17.5156 21.4476 17.5156 21.2031C17.5156 20.9586 17.4185 20.7241 17.2456 20.5513C17.0727 20.3784 16.8382 20.2812 16.5938 20.2812Z" fill="white"/>
<path d="M6.45313 7.375C5.90614 7.375 5.37143 7.5372 4.91663 7.84109C4.46182 8.14498 4.10735 8.57691 3.89802 9.08227C3.6887 9.58762 3.63393 10.1437 3.74064 10.6802C3.84735 11.2166 4.11075 11.7094 4.49753 12.0962C4.88431 12.483 5.3771 12.7464 5.91358 12.8531C6.45006 12.9598 7.00613 12.9051 7.51148 12.6957C8.01684 12.4864 8.44877 12.1319 8.75266 11.6771C9.05655 11.2223 9.21875 10.6876 9.21875 10.1406C9.21793 9.40739 8.92629 8.70442 8.40781 8.18594C7.88933 7.66747 7.18636 7.37582 6.45313 7.375ZM6.45313 11.0625C6.2708 11.0625 6.09256 11.0084 5.94096 10.9071C5.78936 10.8058 5.6712 10.6619 5.60142 10.4934C5.53165 10.325 5.51339 10.1396 5.54896 9.96078C5.58454 9.78195 5.67234 9.61769 5.80126 9.48876C5.93019 9.35983 6.09445 9.27203 6.27328 9.23646C6.4521 9.20089 6.63746 9.21915 6.80591 9.28892C6.97436 9.3587 7.11834 9.47686 7.21964 9.62846C7.32093 9.78006 7.375 9.95829 7.375 10.1406C7.37473 10.385 7.27751 10.6194 7.10469 10.7922C6.93186 10.965 6.69754 11.0622 6.45313 11.0625Z" fill="white"/>
<path d="M26.7344 7.375H19.3594C19.1149 7.375 18.8804 7.47213 18.7075 7.64501C18.5346 7.8179 18.4375 8.05238 18.4375 8.29688C18.4375 8.54137 18.5346 8.77585 18.7075 8.94874C18.8804 9.12162 19.1149 9.21875 19.3594 9.21875H26.7344C26.9789 9.21875 27.2134 9.12162 27.3862 8.94874C27.5591 8.77585 27.6562 8.54137 27.6562 8.29688C27.6562 8.05238 27.5591 7.8179 27.3862 7.64501C27.2134 7.47213 26.9789 7.375 26.7344 7.375Z" fill="white"/>
<path d="M26.7344 10.1406H24.8906C24.6461 10.1406 24.4116 10.2378 24.2388 10.4106C24.0659 10.5835 23.9688 10.818 23.9688 11.0625C23.9688 11.307 24.0659 11.5415 24.2388 11.7144C24.4116 11.8872 24.6461 11.9844 24.8906 11.9844H26.7344C26.9789 11.9844 27.2134 11.8872 27.3862 11.7144C27.5591 11.5415 27.6562 11.307 27.6562 11.0625C27.6562 10.818 27.5591 10.5835 27.3862 10.4106C27.2134 10.2378 26.9789 10.1406 26.7344 10.1406Z" fill="white"/>
<path d="M16.5938 7.375H15.6719C15.4274 7.375 15.1929 7.47213 15.02 7.64501C14.8471 7.8179 14.75 8.05238 14.75 8.29688C14.75 8.54137 14.8471 8.77585 15.02 8.94874C15.1929 9.12162 15.4274 9.21875 15.6719 9.21875H16.5938C16.8382 9.21875 17.0727 9.12162 17.2456 8.94874C17.4185 8.77585 17.5156 8.54137 17.5156 8.29688C17.5156 8.05238 17.4185 7.8179 17.2456 7.64501C17.0727 7.47213 16.8382 7.375 16.5938 7.375Z" fill="white"/>
<path d="M6.45313 33.1875C5.90614 33.1875 5.37143 33.3497 4.91663 33.6536C4.46182 33.9575 4.10735 34.3894 3.89802 34.8948C3.6887 35.4001 3.63393 35.9562 3.74064 36.4927C3.84735 37.0292 4.11075 37.5219 4.49753 37.9087C4.88431 38.2955 5.3771 38.5589 5.91358 38.6656C6.45006 38.7723 7.00613 38.7176 7.51148 38.5082C8.01684 38.2989 8.44877 37.9444 8.75266 37.4896C9.05655 37.0348 9.21875 36.5001 9.21875 35.9531C9.21793 35.2199 8.92629 34.5169 8.40781 33.9984C7.88933 33.48 7.18636 33.1883 6.45313 33.1875ZM6.45313 36.875C6.2708 36.875 6.09256 36.8209 5.94096 36.7196C5.78936 36.6183 5.6712 36.4744 5.60142 36.3059C5.53165 36.1375 5.51339 35.9521 5.54896 35.7733C5.58454 35.5945 5.67234 35.4302 5.80126 35.3013C5.93019 35.1723 6.09445 35.0845 6.27328 35.049C6.4521 35.0134 6.63746 35.0317 6.80591 35.1014C6.97436 35.1712 7.11834 35.2894 7.21964 35.441C7.32093 35.5926 7.375 35.7708 7.375 35.9531C7.37473 36.1975 7.27751 36.4319 7.10469 36.6047C6.93186 36.7775 6.69754 36.8747 6.45313 36.875Z" fill="white"/>
<path d="M26.7344 33.1875H19.3594C19.1149 33.1875 18.8804 33.2846 18.7075 33.4575C18.5346 33.6304 18.4375 33.8649 18.4375 34.1094C18.4375 34.3539 18.5346 34.5884 18.7075 34.7612C18.8804 34.9341 19.1149 35.0312 19.3594 35.0312H26.7344C26.9789 35.0312 27.2134 34.9341 27.3862 34.7612C27.5591 34.5884 27.6562 34.3539 27.6562 34.1094C27.6562 33.8649 27.5591 33.6304 27.3862 33.4575C27.2134 33.2846 26.9789 33.1875 26.7344 33.1875Z" fill="white"/>
<path d="M26.7344 35.9531H24.8906C24.6461 35.9531 24.4116 36.0503 24.2388 36.2231C24.0659 36.396 23.9688 36.6305 23.9688 36.875C23.9688 37.1195 24.0659 37.354 24.2388 37.5269C24.4116 37.6997 24.6461 37.7969 24.8906 37.7969H26.7344C26.9789 37.7969 27.2134 37.6997 27.3862 37.5269C27.5591 37.354 27.6562 37.1195 27.6562 36.875C27.6562 36.6305 27.5591 36.396 27.3862 36.2231C27.2134 36.0503 26.9789 35.9531 26.7344 35.9531Z" fill="white"/>
<path d="M16.5938 33.1875H15.6719C15.4274 33.1875 15.1929 33.2846 15.02 33.4575C14.8471 33.6304 14.75 33.8649 14.75 34.1094C14.75 34.3539 14.8471 34.5884 15.02 34.7612C15.1929 34.9341 15.4274 35.0312 15.6719 35.0312H16.5938C16.8382 35.0312 17.0727 34.9341 17.2456 34.7612C17.4185 34.5884 17.5156 34.3539 17.5156 34.1094C17.5156 33.8649 17.4185 33.6304 17.2456 33.4575C17.0727 33.2846 16.8382 33.1875 16.5938 33.1875Z" fill="white"/>
<path d="M6.45313 46.0938C5.90614 46.0938 5.37143 46.256 4.91663 46.5598C4.46182 46.8637 4.10735 47.2957 3.89802 47.801C3.6887 48.3064 3.63393 48.8624 3.74064 49.3989C3.84735 49.9354 4.11075 50.4282 4.49753 50.815C4.88431 51.2017 5.3771 51.4651 5.91358 51.5719C6.45006 51.6786 7.00613 51.6238 7.51148 51.4145C8.01684 51.2052 8.44877 50.8507 8.75266 50.3959C9.05655 49.9411 9.21875 49.4064 9.21875 48.8594C9.21793 48.1261 8.92629 47.4232 8.40781 46.9047C7.88933 46.3862 7.18636 46.0946 6.45313 46.0938ZM6.45313 49.7812C6.2708 49.7812 6.09256 49.7272 5.94096 49.6259C5.78936 49.5246 5.6712 49.3806 5.60142 49.2122C5.53165 49.0437 5.51339 48.8584 5.54896 48.6795C5.58454 48.5007 5.67234 48.3364 5.80126 48.2075C5.93019 48.0786 6.09445 47.9908 6.27328 47.9552C6.4521 47.9196 6.63746 47.9379 6.80591 48.0077C6.97436 48.0774 7.11834 48.1956 7.21964 48.3472C7.32093 48.4988 7.375 48.677 7.375 48.8594C7.37473 49.1038 7.27751 49.3381 7.10469 49.5109C6.93186 49.6838 6.69754 49.781 6.45313 49.7812Z" fill="white"/>
<path d="M26.7344 46.0938H19.3594C19.1149 46.0938 18.8804 46.1909 18.7075 46.3638C18.5346 46.5366 18.4375 46.7711 18.4375 47.0156C18.4375 47.2601 18.5346 47.4946 18.7075 47.6675C18.8804 47.8404 19.1149 47.9375 19.3594 47.9375H26.7344C26.9789 47.9375 27.2134 47.8404 27.3862 47.6675C27.5591 47.4946 27.6562 47.2601 27.6562 47.0156C27.6562 46.7711 27.5591 46.5366 27.3862 46.3638C27.2134 46.1909 26.9789 46.0938 26.7344 46.0938Z" fill="white"/>
<path d="M26.7344 48.8594H24.8906C24.6461 48.8594 24.4116 48.9565 24.2388 49.1294C24.0659 49.3023 23.9688 49.5368 23.9688 49.7812C23.9688 50.0257 24.0659 50.2602 24.2388 50.4331C24.4116 50.606 24.6461 50.7031 24.8906 50.7031H26.7344C26.9789 50.7031 27.2134 50.606 27.3862 50.4331C27.5591 50.2602 27.6562 50.0257 27.6562 49.7812C27.6562 49.5368 27.5591 49.3023 27.3862 49.1294C27.2134 48.9565 26.9789 48.8594 26.7344 48.8594Z" fill="white"/>
<path d="M16.5938 46.0938H15.6719C15.4274 46.0938 15.1929 46.1909 15.02 46.3638C14.8471 46.5366 14.75 46.7711 14.75 47.0156C14.75 47.2601 14.8471 47.4946 15.02 47.6675C15.1929 47.8404 15.4274 47.9375 15.6719 47.9375H16.5938C16.8382 47.9375 17.0727 47.8404 17.2456 47.6675C17.4185 47.4946 17.5156 47.2601 17.5156 47.0156C17.5156 46.7711 17.4185 46.5366 17.2456 46.3638C17.0727 46.1909 16.8382 46.0938 16.5938 46.0938Z" fill="white"/>
<path d="M56.2344 23.6761V16.5938C56.2335 15.616 55.8447 14.6786 55.1533 13.9873C54.462 13.296 53.5246 12.9072 52.5469 12.9062H43.3281C42.3504 12.9072 41.413 13.296 40.7217 13.9873C40.0303 14.6786 39.6415 15.616 39.6406 16.5938V23.6761C38.6199 25.1234 37.9987 26.8142 37.8395 28.5781H35.0313V10.1406C35.0313 9.89613 34.9341 9.66165 34.7612 9.48876C34.5884 9.31588 34.3539 9.21875 34.1094 9.21875H30.4219V7.375C30.4209 6.64181 30.1292 5.93893 29.6108 5.42049C29.0923 4.90204 28.3894 4.61035 27.6563 4.60938H3.6875C2.95431 4.61035 2.25143 4.90204 1.73299 5.42049C1.21454 5.93893 0.922851 6.64181 0.921875 7.375V12.9062C0.922851 13.6394 1.21454 14.3423 1.73299 14.8608C2.25143 15.3792 2.95431 15.6709 3.6875 15.6719H27.6563C28.3894 15.6709 29.0923 15.3792 29.6108 14.8608C30.1292 14.3423 30.4209 13.6394 30.4219 12.9062V11.0625H33.1875V22.125H30.4219V20.2812C30.4209 19.5481 30.1292 18.8452 29.6108 18.3267C29.0923 17.8083 28.3894 17.5166 27.6563 17.5156H3.6875C2.95431 17.5166 2.25143 17.8083 1.73299 18.3267C1.21454 18.8452 0.922851 19.5481 0.921875 20.2812V25.8125C0.922851 26.5457 1.21454 27.2486 1.73299 27.767C2.25143 28.2855 2.95431 28.5771 3.6875 28.5781H27.6563C28.3894 28.5771 29.0923 28.2855 29.6108 27.767C30.1292 27.2486 30.4209 26.5457 30.4219 25.8125V23.9688H33.1875V35.0312H30.4219V33.1875C30.4209 32.4543 30.1292 31.7514 29.6108 31.233C29.0923 30.7145 28.3894 30.4229 27.6563 30.4219H3.6875C2.95431 30.4229 2.25143 30.7145 1.73299 31.233C1.21454 31.7514 0.922851 32.4543 0.921875 33.1875V38.7188C0.922851 39.4519 1.21454 40.1548 1.73299 40.6733C2.25143 41.1917 2.95431 41.4834 3.6875 41.4844H27.6563C28.3894 41.4834 29.0923 41.1917 29.6108 40.6733C30.1292 40.1548 30.4209 39.4519 30.4219 38.7188V36.875H33.1875V47.9375H30.4219V46.0938C30.4209 45.3606 30.1292 44.6577 29.6108 44.1392C29.0923 43.6208 28.3894 43.3291 27.6563 43.3281H3.6875C2.95431 43.3291 2.25143 43.6208 1.73299 44.1392C1.21454 44.6577 0.922851 45.3606 0.921875 46.0938V51.625C0.922851 52.3582 1.21454 53.0611 1.73299 53.5795C2.25143 54.098 2.95431 54.3896 3.6875 54.3906H27.6563C28.3894 54.3896 29.0923 54.098 29.6108 53.5795C30.1292 53.0611 30.4209 52.3582 30.4219 51.625V49.7812H34.1094C34.3539 49.7812 34.5884 49.6841 34.7612 49.5112C34.9341 49.3384 35.0313 49.1039 35.0313 48.8594V30.4219H37.8395C37.9987 32.1858 38.6199 33.8766 39.6406 35.3239V42.4062C39.6417 43.3839 40.0306 44.3212 40.7219 45.0125C41.4132 45.7038 42.3505 46.0927 43.3281 46.0938H52.5469C53.5245 46.0927 54.4618 45.7038 55.1531 45.0125C55.8444 44.3212 56.2333 43.3839 56.2344 42.4062V35.3239C57.4342 33.6189 58.0781 31.5849 58.0781 29.5C58.0781 27.4151 57.4342 25.3811 56.2344 23.6761ZM28.5781 12.9062C28.5778 13.1506 28.4806 13.3849 28.3077 13.5577C28.1349 13.7306 27.9006 13.8278 27.6563 13.8281H3.6875C3.44311 13.8278 3.20882 13.7306 3.03601 13.5577C2.86319 13.3849 2.76596 13.1506 2.76563 12.9062V7.375C2.76596 7.13061 2.86319 6.89632 3.03601 6.72351C3.20882 6.55069 3.44311 6.45346 3.6875 6.45312H27.6563C27.9006 6.45346 28.1349 6.55069 28.3077 6.72351C28.4806 6.89632 28.5778 7.13061 28.5781 7.375V12.9062ZM28.5781 25.8125C28.5778 26.0569 28.4806 26.2912 28.3077 26.464C28.1349 26.6368 27.9006 26.734 27.6563 26.7344H3.6875C3.44311 26.734 3.20882 26.6368 3.03601 26.464C2.86319 26.2912 2.76596 26.0569 2.76563 25.8125V20.2812C2.76596 20.0369 2.86319 19.8026 3.03601 19.6298C3.20882 19.4569 3.44311 19.3597 3.6875 19.3594H27.6563C27.9006 19.3597 28.1349 19.4569 28.3077 19.6298C28.4806 19.8026 28.5778 20.0369 28.5781 20.2812V25.8125ZM28.5781 38.7188C28.5778 38.9631 28.4806 39.1974 28.3077 39.3702C28.1349 39.5431 27.9006 39.6403 27.6563 39.6406H3.6875C3.44311 39.6403 3.20882 39.5431 3.03601 39.3702C2.86319 39.1974 2.76596 38.9631 2.76563 38.7188V33.1875C2.76596 32.9431 2.86319 32.7088 3.03601 32.536C3.20882 32.3632 3.44311 32.266 3.6875 32.2656H27.6563C27.9006 32.266 28.1349 32.3632 28.3077 32.536C28.4806 32.7088 28.5778 32.9431 28.5781 33.1875V38.7188ZM28.5781 51.625C28.5778 51.8694 28.4806 52.1037 28.3077 52.2765C28.1349 52.4493 27.9006 52.5465 27.6563 52.5469H3.6875C3.44311 52.5465 3.20882 52.4493 3.03601 52.2765C2.86319 52.1037 2.76596 51.8694 2.76563 51.625V46.0938C2.76596 45.8494 2.86319 45.6151 3.03601 45.4423C3.20882 45.2694 3.44311 45.1722 3.6875 45.1719H27.6563C27.9006 45.1722 28.1349 45.2694 28.3077 45.4423C28.4806 45.6151 28.5778 45.8494 28.5781 46.0938V51.625ZM41.4844 16.5938C41.485 16.105 41.6795 15.6364 42.0251 15.2907C42.3707 14.9451 42.8393 14.7506 43.3281 14.75H52.5469C53.0357 14.7506 53.5043 14.9451 53.8499 15.2907C54.1955 15.6364 54.39 16.105 54.3906 16.5938V21.6837C52.5757 20.1814 50.2935 19.3594 47.9375 19.3594C45.5815 19.3594 43.2993 20.1814 41.4844 21.6837V16.5938ZM54.3906 42.4062C54.39 42.895 54.1955 43.3636 53.8499 43.7093C53.5043 44.0549 53.0357 44.2494 52.5469 44.25H43.3281C42.8393 44.2494 42.3707 44.0549 42.0251 43.7093C41.6795 43.3636 41.485 42.895 41.4844 42.4062V37.3163C41.5812 37.397 41.6803 37.4742 41.7805 37.5514C41.8264 37.5942 41.8766 37.6321 41.9303 37.6644C43.6701 38.9481 45.7754 39.6407 47.9375 39.6407C50.0996 39.6407 52.2049 38.9481 53.9447 37.6644C53.9984 37.6321 54.0486 37.5942 54.0945 37.5514C54.1947 37.4742 54.2938 37.397 54.3906 37.3163V42.4062ZM47.9375 30.4219C49.16 30.4219 50.3324 30.9075 51.1968 31.7719C52.0612 32.6364 52.5469 33.8088 52.5469 35.0312V36.3945C51.1835 37.3087 49.579 37.7969 47.9375 37.7969C46.296 37.7969 44.6915 37.3087 43.3281 36.3945V35.0312C43.3293 33.8091 43.8154 32.6374 44.6795 31.7733C45.5437 30.9091 46.7154 30.4231 47.9375 30.4219ZM46.0938 26.7344C46.0938 26.3697 46.2019 26.0132 46.4045 25.71C46.6071 25.4068 46.895 25.1705 47.2319 25.031C47.5688 24.8914 47.9395 24.8549 48.2972 24.9261C48.6549 24.9972 48.9834 25.1728 49.2412 25.4306C49.4991 25.6885 49.6747 26.017 49.7458 26.3747C49.817 26.7323 49.7805 27.103 49.6409 27.4399C49.5014 27.7768 49.265 28.0648 48.9618 28.2674C48.6586 28.47 48.3022 28.5781 47.9375 28.5781C47.4487 28.5775 46.9801 28.383 46.6345 28.0374C46.2888 27.6918 46.0944 27.2232 46.0938 26.7344ZM54.3826 34.7167C54.324 33.5471 53.9493 32.4152 53.2983 31.4418C52.6473 30.4683 51.7444 29.6897 50.6858 29.1889C51.1606 28.6582 51.4716 28.0014 51.5812 27.2978C51.6908 26.5942 51.5944 25.8739 51.3035 25.2239C51.0127 24.5739 50.5398 24.0221 49.9421 23.635C49.3444 23.2479 48.6474 23.0422 47.9354 23.0427C47.2233 23.0431 46.5266 23.2497 45.9293 23.6375C45.3321 24.0254 44.86 24.5778 44.5699 25.2281C44.2799 25.8785 44.1844 26.5989 44.2948 27.3024C44.4053 28.0058 44.7172 28.6622 45.1926 29.1923C44.1333 29.6916 43.2296 30.4693 42.5779 31.4423C41.9262 32.4153 41.551 33.547 41.4924 34.7167C40.5054 33.4991 39.8834 32.0268 39.6985 30.4703C39.5137 28.9138 39.7735 27.3368 40.4479 25.9219C41.1223 24.507 42.1837 23.3121 43.5092 22.4755C44.8347 21.6389 46.3701 21.1949 47.9375 21.1949C49.5049 21.1949 51.0403 21.6389 52.3658 22.4755C53.6913 23.3121 54.7527 24.507 55.4271 25.9219C56.1015 27.3368 56.3613 28.9138 56.1765 30.4703C55.9916 32.0268 55.3696 33.4991 54.3826 34.7167Z" fill="white"/>
</svg>
