<svg xmlns="http://www.w3.org/2000/svg" width="20" height="19.594" viewBox="0 0 20 19.594">
  <defs>
    <style>
      .cls-1 {
        fill: #535353;
        fill-rule: evenodd;
      }
    </style>
  </defs>
  <path id="grid" class="cls-1" d="M0,39H5.7v5.586H0V39Zm7.15,0h5.7v5.586H7.15V39Zm7.118,0H20v5.586H14.268V39Zm-13.5.755V43.82H4.948V39.755H0.766Zm7.15,0V43.82h4.171V39.755H7.916Zm7.118,0V43.82h4.2V39.755h-4.2ZM0,46H5.7v5.586H0V46Zm7.15,0h5.7v5.586H7.15V46Zm7.118,0H20v5.586H14.268V46Zm-13.5.756v4.064H4.948V46.757H0.766Zm7.15,0v4.064h4.171V46.757H7.916Zm7.118,0v4.064h4.2V46.757h-4.2ZM0,52.97H5.7v5.618H0V52.97Zm7.15,0h5.7v5.618H7.15V52.97Zm7.118,0H20v5.618H14.268V52.97Zm-13.5.766v4.086H4.948V53.736H0.766Zm7.15,0v4.086h4.171V53.736H7.916Zm7.118,0v4.086h4.2V53.736h-4.2Z" transform="translate(0 -39)"/>
</svg>
