<svg width="84" height="82" viewBox="0 0 84 82" fill="none" xmlns="http://www.w3.org/2000/svg">
<path d="M84 69H12V0H7V15H0V20H7V32H0V37H7V48H0V53H7V69H0V74H7V81H12V74H30V82H35V74H46V82H51V74H63V82H68V74H84V69Z" fill="white"/>
<path d="M38.69 58.9999C40.83 58.9999 39.72 59.9499 52.77 37.8399L60.35 43.2699C61.46 44.0599 62.99 43.8399 63.8 42.7499L81.69 18.9299L77.69 15.9299L61.27 37.8099C52.76 31.7499 52.89 31.5499 51.48 31.8399C50.04 32.1499 50.78 31.4299 38.94 51.5599C28.83 31.7099 29.56 31.9999 27.37 31.9999H17V36.9999H25.82C37.63 60.0499 36.53 58.9999 38.69 58.9999Z" fill="white"/>
</svg>
