<svg xmlns="http://www.w3.org/2000/svg" xmlns:xlink="http://www.w3.org/1999/xlink" width="61px" height="60px" viewBox="0 0 61 60">
<path fill-rule="evenodd"  fill="rgb(0, 0, 0)" d="M5.089,0.000 C6.297,0.000 7.506,0.000 8.714,0.000 C8.714,16.826 8.714,33.657 8.714,50.483 C26.141,50.483 43.573,50.483 61.000,50.483 C61.000,51.706 61.000,52.930 61.000,54.153 C57.125,54.153 53.250,54.153 49.375,54.153 C49.375,56.102 49.375,58.051 49.375,60.000 C48.167,60.000 46.958,60.000 45.750,60.000 C45.750,58.051 45.750,56.102 45.750,54.153 C42.846,54.153 39.940,54.153 37.036,54.153 C37.036,56.102 37.036,58.051 37.036,60.000 C35.827,60.000 34.619,60.000 33.411,60.000 C33.411,58.051 33.411,56.102 33.411,54.153 C30.744,54.153 28.077,54.153 25.411,54.153 C25.411,56.102 25.411,58.051 25.411,60.000 C24.203,60.000 22.994,60.000 21.786,60.000 C21.786,58.051 21.786,56.102 21.786,54.153 C17.429,54.153 13.071,54.153 8.714,54.153 C8.714,55.856 8.714,57.559 8.714,59.263 C7.506,59.263 6.297,59.263 5.089,59.263 C5.089,57.559 5.089,55.856 5.089,54.153 C3.393,54.153 1.696,54.153 0.000,54.153 C0.000,52.930 0.000,51.706 0.000,50.483 C1.696,50.483 3.393,50.483 5.089,50.483 C5.089,46.585 5.089,42.686 5.089,38.788 C3.393,38.788 1.696,38.788 0.000,38.788 C0.000,37.565 0.000,36.342 0.000,35.119 C1.696,35.119 3.393,35.119 5.089,35.119 C5.089,32.438 5.089,29.757 5.089,27.076 C3.393,27.076 1.696,27.076 0.000,27.076 C0.000,25.853 0.000,24.630 0.000,23.406 C1.696,23.406 3.393,23.406 5.089,23.406 C5.089,20.486 5.089,17.565 5.089,14.644 C3.393,14.644 1.696,14.644 0.000,14.644 C0.000,13.421 0.000,12.198 0.000,10.975 C1.696,10.975 3.393,10.975 5.089,10.975 C5.089,7.317 5.089,3.658 5.089,0.000 ZM5.804,0.737 C5.804,4.395 5.804,8.054 5.804,11.712 C4.113,11.712 2.422,11.712 0.732,11.712 C0.732,12.444 0.732,13.175 0.732,13.907 C2.422,13.907 4.113,13.907 5.804,13.907 C5.804,17.319 5.804,20.732 5.804,24.144 C4.113,24.144 2.422,24.144 0.732,24.144 C0.732,24.876 0.732,25.607 0.732,26.339 C2.422,26.339 4.113,26.339 5.804,26.339 C5.804,29.511 5.804,32.684 5.804,35.856 C4.113,35.856 2.422,35.856 0.732,35.856 C0.732,36.588 0.732,37.319 0.732,38.051 C2.422,38.051 4.113,38.051 5.804,38.051 C5.804,42.440 5.804,46.831 5.804,51.220 C4.113,51.220 2.422,51.220 0.732,51.220 C0.732,51.952 0.732,52.684 0.732,53.415 C2.422,53.415 4.113,53.415 5.804,53.415 C5.804,55.118 5.804,56.822 5.804,58.525 C6.530,58.525 7.256,58.525 7.982,58.525 C7.982,56.822 7.982,55.118 7.982,53.415 C12.827,53.415 17.673,53.415 22.518,53.415 C22.518,55.364 22.518,57.314 22.518,59.263 C23.244,59.263 23.970,59.263 24.696,59.263 C24.696,57.314 24.696,55.364 24.696,53.415 C27.839,53.415 30.983,53.415 34.125,53.415 C34.125,55.364 34.125,57.314 34.125,59.263 C34.851,59.263 35.578,59.263 36.304,59.263 C36.304,57.314 36.304,55.364 36.304,53.415 C39.696,53.415 43.090,53.415 46.482,53.415 C46.482,55.364 46.482,57.314 46.482,59.263 C47.208,59.263 47.934,59.263 48.661,59.263 C48.661,57.314 48.661,55.364 48.661,53.415 C52.529,53.415 56.399,53.415 60.268,53.415 C60.268,52.684 60.268,51.952 60.268,51.220 C42.841,51.220 25.409,51.220 7.982,51.220 C7.982,34.394 7.982,17.563 7.982,0.737 C7.256,0.737 6.530,0.737 5.804,0.737 ZM12.339,27.076 C12.339,25.859 12.339,24.641 12.339,23.424 C12.345,23.418 12.351,23.412 12.357,23.406 C14.338,23.406 16.319,23.406 18.300,23.406 C19.041,23.407 20.253,23.246 20.757,23.547 C21.612,24.058 22.687,26.568 23.197,27.586 C24.894,30.962 26.590,34.340 28.287,37.717 C30.488,33.937 32.690,30.155 34.892,26.374 C35.434,25.474 36.419,23.026 37.890,23.231 C38.734,23.349 39.375,23.989 39.964,24.407 C41.474,25.490 42.985,26.573 44.495,27.656 C44.501,27.656 44.507,27.656 44.513,27.656 C47.516,23.623 50.520,19.590 53.523,15.558 C54.238,14.598 54.952,13.638 55.667,12.678 C55.837,12.446 56.207,11.713 56.469,11.677 C57.415,12.397 58.363,13.117 59.309,13.837 C58.084,15.487 56.858,17.138 55.632,18.788 C53.425,21.750 51.217,24.712 49.009,27.673 C48.341,28.569 47.673,29.465 47.005,30.360 C46.675,30.808 46.376,31.371 45.924,31.694 C45.591,31.933 44.977,32.108 44.425,31.958 C43.809,31.790 43.359,31.313 42.892,30.975 C41.910,30.266 40.928,29.558 39.946,28.850 C39.400,28.464 38.854,28.077 38.308,27.691 C36.072,31.536 33.834,35.382 31.598,39.227 C31.038,40.155 29.739,42.917 28.722,43.161 C26.534,43.685 25.921,41.104 25.254,39.930 C23.087,35.646 20.920,31.360 18.753,27.076 C16.615,27.076 14.477,27.076 12.339,27.076 ZM13.071,24.144 C13.071,24.876 13.071,25.607 13.071,26.339 C15.116,26.339 17.162,26.339 19.206,26.339 C21.379,30.640 23.552,34.943 25.725,39.245 C26.178,40.048 27.077,42.936 28.583,42.441 C29.114,42.266 30.826,39.081 31.232,38.402 C33.521,34.481 35.810,30.559 38.099,26.637 C39.749,27.820 41.399,29.002 43.049,30.184 C43.450,30.473 44.341,31.389 45.018,31.273 C45.859,31.129 47.701,28.189 48.277,27.428 C51.611,22.945 54.947,18.460 58.281,13.977 C57.718,13.550 57.154,13.123 56.591,12.695 C56.573,12.701 56.556,12.707 56.538,12.713 C52.577,18.033 48.614,23.354 44.652,28.674 C43.078,27.545 41.503,26.415 39.929,25.285 C39.429,24.927 38.512,24.076 37.872,23.968 C36.898,23.805 35.570,26.680 35.153,27.375 C32.847,31.331 30.540,35.289 28.234,39.245 C26.422,35.640 24.609,32.034 22.797,28.428 C22.330,27.511 21.111,24.644 20.409,24.197 C20.150,24.032 18.814,24.144 18.387,24.144 C16.615,24.144 14.843,24.144 13.071,24.144 Z"/></svg>