<svg width="60" height="60" viewBox="0 0 60 60" fill="none" xmlns="http://www.w3.org/2000/svg">
<path d="M59.0625 38.4375V35.625C59.0625 33.0956 57.6216 30.9 55.5197 29.805C56.5312 28.9444 57.1875 27.6788 57.1875 26.25C57.1875 23.6653 55.0847 21.5625 52.5 21.5625C52.3838 21.5625 52.2741 21.5888 52.1597 21.5972L51.2044 19.6875H53.4375V16.875C53.4375 14.3456 51.9966 12.15 49.8947 11.055C50.9062 10.1944 51.5625 8.92875 51.5625 7.5C51.5625 4.91531 49.4597 2.8125 46.875 2.8125C44.2903 2.8125 42.1875 4.91531 42.1875 7.5C42.1875 8.92875 42.8438 10.1944 43.8553 11.055C43.8441 11.0606 43.8319 11.0653 43.8216 11.0719L34.4109 7.15031C34.5778 6.66937 34.6875 6.16219 34.6875 5.625C34.6875 3.04031 32.5847 0.9375 30 0.9375C27.4153 0.9375 25.3125 3.04031 25.3125 5.625C25.3125 6.16219 25.4222 6.66937 25.5891 7.15031L16.1794 11.0719C16.1681 11.0663 16.1559 11.0616 16.1456 11.055C17.1562 10.1944 17.8125 8.92875 17.8125 7.5C17.8125 4.91531 15.7097 2.8125 13.125 2.8125C10.5403 2.8125 8.4375 4.91531 8.4375 7.5C8.4375 8.92875 9.09375 10.1944 10.1053 11.055C8.00344 12.15 6.5625 14.3456 6.5625 16.875V19.6875H8.79562L7.84125 21.5972C7.72594 21.5888 7.61625 21.5625 7.5 21.5625C4.91531 21.5625 2.8125 23.6653 2.8125 26.25C2.8125 27.6788 3.46875 28.9444 4.48031 29.805C2.37844 30.9 0.9375 33.0956 0.9375 35.625V38.4375H7.84781L9.55688 41.9963C8.86875 42.8119 8.4375 43.8516 8.4375 45C8.4375 46.4287 9.09375 47.6944 10.1053 48.555C8.00344 49.65 6.5625 51.8456 6.5625 54.375V57.1875H19.6875V54.375C19.6875 51.8456 18.2466 49.65 16.1447 48.555C16.2938 48.4284 16.4372 48.2981 16.5694 48.1537L25.2263 51.7613C24.1209 52.9359 23.4375 54.5128 23.4375 56.25V59.0625H36.5625V56.25C36.5625 54.5128 35.8791 52.9359 34.7738 51.7613L43.4306 48.1537C43.5628 48.2981 43.7062 48.4284 43.8553 48.555C41.7534 49.65 40.3125 51.8456 40.3125 54.375V57.1875H53.4375V54.375C53.4375 51.8456 51.9966 49.65 49.8947 48.555C50.9062 47.6944 51.5625 46.4287 51.5625 45C51.5625 43.8516 51.1312 42.8119 50.4431 41.9963L52.1522 38.4375H59.0625ZM57.1875 35.625V36.5625H47.8125V35.625C47.8125 33.0403 49.9153 30.9375 52.5 30.9375C55.0847 30.9375 57.1875 33.0403 57.1875 35.625ZM55.3125 26.25C55.3125 27.8006 54.0506 29.0625 52.5 29.0625C50.9494 29.0625 49.6875 27.8006 49.6875 26.25C49.6875 24.6994 50.9494 23.4375 52.5 23.4375C54.0506 23.4375 55.3125 24.6994 55.3125 26.25ZM50.3259 22.1222C48.8391 22.9097 47.8125 24.4547 47.8125 26.25C47.8125 27.3094 48.1791 28.2769 48.7744 29.0625H33.7256C34.2375 28.3866 34.56 27.5719 34.6434 26.6822L41.6381 19.6875H49.1081L50.3259 22.1222ZM34.6875 35.625V36.5625H25.3125V35.625C25.3125 33.0403 27.4153 30.9375 30 30.9375C32.5847 30.9375 34.6875 33.0403 34.6875 35.625ZM30 49.6875C28.4494 49.6875 27.1875 48.4256 27.1875 46.875C27.1875 45.3244 28.4494 44.0625 30 44.0625C31.5506 44.0625 32.8125 45.3244 32.8125 46.875C32.8125 48.4256 31.5506 49.6875 30 49.6875ZM27.1875 26.25C27.1875 24.6994 28.4494 23.4375 30 23.4375C31.5506 23.4375 32.8125 24.6994 32.8125 26.25C32.8125 27.8006 31.5506 29.0625 30 29.0625C28.4494 29.0625 27.1875 27.8006 27.1875 26.25ZM25.3125 15.9375V15C25.3125 12.4153 27.4153 10.3125 30 10.3125C32.5847 10.3125 34.6875 12.4153 34.6875 15V15.9375H25.3125ZM51.5625 16.875V17.8125H42.1875V16.875C42.1875 14.2903 44.2903 12.1875 46.875 12.1875C49.4597 12.1875 51.5625 14.2903 51.5625 16.875ZM44.0625 7.5C44.0625 5.94938 45.3244 4.6875 46.875 4.6875C48.4256 4.6875 49.6875 5.94938 49.6875 7.5C49.6875 9.05062 48.4256 10.3125 46.875 10.3125C45.3244 10.3125 44.0625 9.05062 44.0625 7.5ZM42.1012 12.3862C40.9959 13.5609 40.3125 15.1378 40.3125 16.875V18.3619L34.2938 24.3806C33.6909 23.0016 32.4469 21.9647 30.9375 21.6572V17.8125H36.5625V15C36.5625 12.4706 35.1216 10.275 33.0197 9.18C33.1688 9.05344 33.3122 8.92313 33.4444 8.77875L42.1012 12.3862ZM30 2.8125C31.5506 2.8125 32.8125 4.07437 32.8125 5.625C32.8125 7.17562 31.5506 8.4375 30 8.4375C28.4494 8.4375 27.1875 7.17562 27.1875 5.625C27.1875 4.07437 28.4494 2.8125 30 2.8125ZM26.9803 9.18C24.8784 10.275 23.4375 12.4706 23.4375 15V17.8125H29.0625V21.6572C27.5531 21.9647 26.3091 23.0016 25.7062 24.3806L19.6875 18.3619V16.875C19.6875 15.1378 19.0041 13.5609 17.8987 12.3862L26.5556 8.77875C26.6878 8.92313 26.8312 9.05344 26.9803 9.18ZM10.3125 7.5C10.3125 5.94938 11.5744 4.6875 13.125 4.6875C14.6756 4.6875 15.9375 5.94938 15.9375 7.5C15.9375 9.05062 14.6756 10.3125 13.125 10.3125C11.5744 10.3125 10.3125 9.05062 10.3125 7.5ZM8.4375 16.875C8.4375 14.2903 10.5403 12.1875 13.125 12.1875C15.7097 12.1875 17.8125 14.2903 17.8125 16.875V17.8125H8.4375V16.875ZM10.8919 19.6875H18.3619L25.3566 26.6822C25.44 27.5719 25.7625 28.3866 26.2744 29.0625H11.2256C11.8209 28.2769 12.1875 27.3094 12.1875 26.25C12.1875 24.4547 11.1609 22.9097 9.67406 22.1222L10.8919 19.6875ZM4.6875 26.25C4.6875 24.6994 5.94938 23.4375 7.5 23.4375C9.05062 23.4375 10.3125 24.6994 10.3125 26.25C10.3125 27.8006 9.05062 29.0625 7.5 29.0625C5.94938 29.0625 4.6875 27.8006 4.6875 26.25ZM2.8125 35.625C2.8125 33.0403 4.91531 30.9375 7.5 30.9375C10.0847 30.9375 12.1875 33.0403 12.1875 35.625V36.5625H2.8125V35.625ZM14.0625 38.4375V35.625C14.0625 33.7894 13.3031 32.13 12.0834 30.9375H25.4156C24.2878 32.04 23.5613 33.5447 23.4572 35.2162L16.6856 41.9878C15.8259 40.9725 14.5575 40.3125 13.125 40.3125C12.3834 40.3125 11.6906 40.5009 11.0672 40.8094L9.92719 38.4375H14.0625ZM17.8125 54.375V55.3125H8.4375V54.375C8.4375 51.7903 10.5403 49.6875 13.125 49.6875C15.7097 49.6875 17.8125 51.7903 17.8125 54.375ZM10.3125 45C10.3125 43.4494 11.5744 42.1875 13.125 42.1875C14.6756 42.1875 15.9375 43.4494 15.9375 45C15.9375 46.5506 14.6756 47.8125 13.125 47.8125C11.5744 47.8125 10.3125 46.5506 10.3125 45ZM17.8125 45C17.8125 44.5509 17.7291 44.1263 17.6109 43.7147L23.4375 37.8881V38.4375H29.0625V42.2822C26.9259 42.7181 25.3125 44.6109 25.3125 46.875C25.3125 48.3037 25.9688 49.5694 26.9803 50.43C26.9691 50.4356 26.9569 50.4403 26.9466 50.4469L17.5369 46.5262C17.7028 46.0444 17.8125 45.5372 17.8125 45ZM34.6875 57.1875H25.3125V56.25C25.3125 53.6653 27.4153 51.5625 30 51.5625C32.5847 51.5625 34.6875 53.6653 34.6875 56.25V57.1875ZM33.0544 50.4469C33.0431 50.4412 33.0309 50.4366 33.0206 50.43C34.0312 49.5694 34.6875 48.3037 34.6875 46.875C34.6875 44.6119 33.0741 42.7181 30.9375 42.2822V38.4375H36.5625V37.8881L42.3891 43.7147C42.2709 44.1263 42.1875 44.5509 42.1875 45C42.1875 45.5372 42.2972 46.0444 42.4641 46.5253L33.0544 50.4469ZM51.5625 54.375V55.3125H42.1875V54.375C42.1875 51.7903 44.2903 49.6875 46.875 49.6875C49.4597 49.6875 51.5625 51.7903 51.5625 54.375ZM44.0625 45C44.0625 43.4494 45.3244 42.1875 46.875 42.1875C48.4256 42.1875 49.6875 43.4494 49.6875 45C49.6875 46.5506 48.4256 47.8125 46.875 47.8125C45.3244 47.8125 44.0625 46.5506 44.0625 45ZM48.9328 40.8094C48.3094 40.5009 47.6166 40.3125 46.875 40.3125C45.4425 40.3125 44.1741 40.9725 43.3134 41.9878L36.5419 35.2162C36.4378 33.5447 35.7113 32.04 34.5834 30.9375H47.9156C46.6969 32.13 45.9375 33.7894 45.9375 35.625V38.4375H50.0728L48.9328 40.8094Z" fill="#F0F0F0"/>
</svg>
