<svg xmlns="http://www.w3.org/2000/svg" width="15.969" height="12.376" viewBox="0 0 15.969 12.376">
  <defs>
    <style>
      .cls-1 {
        fill: #535353;
        fill-rule: evenodd;
      }
    </style>
  </defs>
  <path id="checked" class="cls-1" d="M368.864,193.827a0.893,0.893,0,0,1,.836,1.381l-7.061,8.46-1.681,2.018a0.961,0.961,0,0,1-.936.508,4.006,4.006,0,0,1-1.554-1.3l-3.58-3.571c-0.391-.391-1.374-1.092-0.755-1.872s1.343-.048,1.745.354l4.18,4.189,0.028-.009q3.1-3.716,6.2-7.433l1.5-1.8a3.817,3.817,0,0,1,.681-0.782A1.544,1.544,0,0,1,368.864,193.827Z" transform="translate(-353.906 -193.812)"/>
</svg>
