<svg width="57" height="57" viewBox="0 0 57 57" fill="none" xmlns="http://www.w3.org/2000/svg">
<g clip-path="url(#clip0)">
<path d="M37.9002 19.5451C37.3727 19.4016 36.8291 19.3981 36.3134 19.5299L34.5808 16.5018L33.1296 17.332L34.8622 20.3605C34.4873 20.738 34.2142 21.2085 34.0707 21.736C33.852 22.5401 33.9594 23.3811 34.3734 24.1043L35.2427 25.6242C35.6563 26.3474 36.3273 26.8662 37.1314 27.0854C37.4036 27.1593 37.6806 27.1963 37.9555 27.1963C38.2129 27.1963 38.4686 27.1637 38.7182 27.1002L39.0592 27.6955C38.099 28.667 37.8589 30.1969 38.5695 31.4389L39.4388 32.9588C39.8528 33.682 40.5234 34.2008 41.3275 34.4196C41.5997 34.4939 41.8767 34.5305 42.1516 34.5305C42.409 34.5305 42.6652 34.4983 42.9143 34.4344L44.6595 37.485L46.1111 36.6548L44.3651 33.6033C45.3253 32.6322 45.5653 31.1019 44.8548 29.8603L43.9854 28.3404C43.2748 27.0984 41.8341 26.5301 40.5103 26.8654L40.1694 26.27C40.5447 25.8921 40.8174 25.422 40.9609 24.8945C41.1796 24.0904 41.0722 23.2489 40.6582 22.5257L39.7889 21.0063C39.3753 20.2826 38.7043 19.7638 37.9002 19.5451ZM42.5338 29.1706L43.4036 30.6905C43.6454 31.1132 43.6497 31.6081 43.4592 32.0195L42.973 31.1702L41.5219 32.0004L42.0085 32.8505C41.9276 32.8427 41.8467 32.8279 41.7667 32.8062C41.3936 32.7049 41.0822 32.4639 40.89 32.1282L40.0207 30.6088C39.7789 30.1856 39.7741 29.6907 39.965 29.2793L40.4634 30.1504L41.915 29.3202L41.4162 28.4487C41.8676 28.4931 42.292 28.7479 42.5338 29.1706ZM38.7769 23.836L37.3258 24.6662L37.8119 25.5164C37.7311 25.5085 37.6502 25.4938 37.5702 25.472C37.197 25.3702 36.8857 25.1298 36.6939 24.794L35.8246 23.2741C35.6323 22.9384 35.5823 22.5479 35.6841 22.1748C35.7058 22.0948 35.7341 22.0178 35.768 21.9439L36.2673 22.8162L37.7184 21.9856L37.2201 21.1146C37.6715 21.1585 38.0959 21.4133 38.3377 21.836L39.207 23.3559C39.3992 23.6916 39.4492 24.0817 39.3475 24.4553C39.3257 24.5353 39.2975 24.6123 39.2636 24.6862L38.7769 23.836Z" fill="white"/>
<path d="M12.3848 37.485L14.1308 34.4335C14.3822 34.497 14.6383 34.5283 14.8927 34.5283C15.976 34.5283 17.0301 33.9643 17.6055 32.9584L18.4752 31.4389C18.8888 30.7157 18.9962 29.8743 18.7774 29.0702C18.6339 28.5427 18.3608 28.0726 17.986 27.6947L18.3269 27.0993C18.5787 27.1628 18.8344 27.1941 19.0888 27.1941C20.1721 27.1941 21.2262 26.6301 21.802 25.6242L22.6713 24.1043C23.3819 22.8628 23.1419 21.3329 22.1816 20.3614L23.9151 17.332L22.4639 16.5018L20.7305 19.5312C19.4067 19.1955 17.966 19.7643 17.2554 21.0058L16.3861 22.5257C15.6755 23.7677 15.9155 25.2976 16.8757 26.2687L16.5348 26.8645C16.019 26.7327 15.4754 26.7358 14.9479 26.8793C14.1438 27.098 13.4733 27.6168 13.0593 28.34L12.1899 29.8599C11.4794 31.1019 11.7194 32.6318 12.6792 33.6033L10.9336 36.6544L12.3848 37.485ZM17.6968 24.4553C17.5955 24.0817 17.645 23.6916 17.8372 23.3559L18.7066 21.836C18.9483 21.4133 19.3728 21.1589 19.8246 21.1146L19.3263 21.986L20.7774 22.8162L21.2758 21.9447C21.4667 22.3566 21.4624 22.8514 21.2201 23.2741L20.3508 24.794C20.1086 25.2167 19.6846 25.4716 19.2328 25.5155L19.7185 24.6666L18.2673 23.836L17.7811 24.6862C17.7468 24.6123 17.7185 24.5353 17.6968 24.4553ZM13.6411 30.6905L14.5104 29.1706C14.7027 28.8349 15.0136 28.594 15.3867 28.4927C15.4667 28.4709 15.5476 28.4561 15.6285 28.4483L15.1297 29.3202L16.5809 30.1504L17.0793 29.2793C17.2702 29.6907 17.2658 30.1856 17.024 30.6088L16.1543 32.1282C15.9125 32.5513 15.488 32.8058 15.0366 32.8501L15.5224 32.0008L14.0712 31.1706L13.5855 32.0199C13.3946 31.6081 13.3989 31.1132 13.6411 30.6905Z" fill="white"/>
<path d="M36.9149 46.2821L40.4039 46.2721L40.3991 44.6L36.9088 44.61C36.5396 43.2984 35.3324 42.3347 33.9055 42.3347H33.8964L32.1456 42.3399C30.7149 42.3438 29.5085 43.3158 29.1463 44.6322L28.46 44.6343C28.317 44.1216 28.043 43.652 27.6551 43.2667C27.0663 42.6813 26.2857 42.3591 25.4555 42.3591H25.4463L23.6955 42.3639C22.8623 42.3665 22.08 42.6931 21.4925 43.284C21.1067 43.672 20.8354 44.1429 20.6953 44.6565L17.1807 44.6665L17.1854 46.3382L20.701 46.3282C21.0702 47.6402 22.2778 48.6034 23.7047 48.6034H23.7134L25.4642 48.5982C26.2974 48.5961 27.0802 48.269 27.6677 47.6785C28.053 47.2906 28.3243 46.8196 28.4648 46.306L29.1497 46.3038C29.2928 46.8165 29.5672 47.2862 29.9547 47.6719C30.5435 48.2573 31.3241 48.5791 32.1543 48.5791H32.1634L33.9142 48.5743C34.7475 48.5717 35.5302 48.2451 36.1178 47.6541C36.503 47.2666 36.7744 46.7957 36.9149 46.2821ZM26.4822 46.4995C26.2095 46.7739 25.8464 46.9253 25.4598 46.9266L23.709 46.9314H23.7047C23.2193 46.9314 22.7884 46.6913 22.5257 46.323L23.5042 46.3204L23.4994 44.6483L22.5196 44.6513C22.5666 44.5848 22.6192 44.5217 22.6779 44.463C22.9506 44.1886 23.3137 44.0373 23.7003 44.0359L25.4511 44.0307H25.4555C25.8408 44.0307 26.203 44.1803 26.4761 44.4521C26.5353 44.5104 26.5883 44.573 26.6357 44.6396L25.6307 44.6422L25.6355 46.3143L26.6405 46.3112C26.5935 46.3778 26.5405 46.4408 26.4822 46.4995ZM33.9095 46.9022L32.1586 46.9074H32.1543C31.769 46.9074 31.4067 46.7578 31.1336 46.4865C31.0749 46.4278 31.0214 46.3651 30.9745 46.299L31.9538 46.296L31.949 44.6243L30.9706 44.6269C31.2319 44.2564 31.6633 44.0133 32.1504 44.0116L33.9012 44.0068H33.9055C34.3909 44.0068 34.8214 44.2469 35.0845 44.6152L34.0808 44.6182L34.0856 46.2899L35.0901 46.2873C35.0432 46.3538 34.9906 46.4165 34.9318 46.4756C34.6592 46.7496 34.2961 46.9013 33.9095 46.9022Z" fill="white"/>
<path d="M29.3581 23.5799V14.3209L37.3767 9.69123L36.5405 8.24353L28.5222 12.8728L20.504 8.24353L19.6677 9.69123L27.6864 14.3209V23.5799H29.3581Z" fill="white"/>
<path d="M53.5111 37.5576L45.4951 42.1912L37.4733 37.565L36.6379 39.0131L44.6597 43.6394L44.664 52.8983L46.3357 52.8979L46.3318 43.6389L54.3478 39.0049L53.5111 37.5576Z" fill="white"/>
<path d="M12.3382 52.8387V43.5797L20.3564 38.9505L19.5206 37.5028L11.5023 42.132L3.4828 37.5023L2.64697 38.9505L10.6661 43.5797V52.8387H12.3382Z" fill="white"/>
<path d="M18.6924 8.16261L28.5223 2.48705L38.3523 8.16261V18.5661H40.0244V7.19719L28.5223 0.556641L17.0208 7.19719V18.5661H18.6924V8.16261Z" fill="white"/>
<path d="M28.5222 27.1188L33.1397 24.453L32.3039 23.0053L28.5222 25.1883L24.7396 23.0044L23.9038 24.4521L28.5222 27.1188Z" fill="white"/>
<path d="M11.502 54.4477L1.6721 48.7721V37.4214L10.8036 32.1494L9.96778 30.7013L0 36.4564V49.7375L11.502 56.3781L22.1173 50.2494L21.2815 48.8012L11.502 54.4477Z" fill="white"/>
<path d="M23.0035 41.238V36.4566L18.516 33.8656L17.6802 35.3137L21.3318 37.4216V41.238H23.0035Z" fill="white"/>
<path d="M56.9936 36.5101L47.0754 30.7902L46.24 32.2383L55.3224 37.4759L55.328 48.8266L45.5007 54.507L35.8908 48.9649L35.0554 50.413L45.5016 56.4374L57.0001 49.7912L56.9936 36.5101Z" fill="white"/>
<path d="M38.5481 33.8865L33.9897 36.5214L33.9919 41.0371L35.664 41.0363L35.6618 37.4859L39.3848 35.3337L38.5481 33.8865Z" fill="white"/>
<path d="M23.2755 8.7466L22.4375 7.29977L23.8839 6.46177L24.7223 7.90816L23.2755 8.7466ZM33.1972 8.40349L28.5231 5.70508L28.0974 5.95209L27.259 4.50526L28.5214 3.7738L34.0335 6.95579L33.1972 8.40349ZM25.6865 7.34935L24.8484 5.90252L26.2948 5.06451L27.1329 6.51091L25.6865 7.34935Z" fill="white"/>
<path d="M48.7034 51.3678L47.8667 49.9206L52.5394 47.2196L52.5386 46.7273L54.2102 46.7238L54.2133 48.1828L48.7034 51.3678ZM52.536 45.6127L52.5325 43.941L54.2041 43.9371L54.2081 45.6092L52.536 45.6127ZM52.5299 42.8265L52.5264 41.1544L54.1985 41.1509L54.202 42.8225L52.5299 42.8265Z" fill="white"/>
<path d="M8.88271 51.6354L2.78662 48.1294V46.3807H4.45828V47.1627L9.71593 50.1863L8.88271 51.6354ZM2.78662 45.2662V43.5941H4.45828V45.2657L2.78662 45.2662ZM4.45828 42.4795H2.78662V40.8074H4.45828V42.4795Z" fill="white"/>
</g>
<defs>
<clipPath id="clip0">
<rect width="57" height="57" fill="white"/>
</clipPath>
</defs>
</svg>
