<svg width="21" height="21" viewBox="0 0 21 21" fill="none" xmlns="http://www.w3.org/2000/svg">
<g clip-path="url(#clip0)">
<path d="M17.7925 4.35865L13.8376 0.617121C13.417 0.219146 12.8664 0 12.2873 0H4.75781C3.51393 0 2.50195 1.01198 2.50195 2.25586V18.7441C2.50195 19.988 3.51393 21 4.75781 21H16.2422C17.4861 21 18.498 19.988 18.498 18.7441V5.99739C18.498 5.38014 18.2409 4.78283 17.7925 4.35865ZM16.5974 4.92188H13.5352C13.4221 4.92188 13.3301 4.82988 13.3301 4.7168V1.83077L16.5974 4.92188ZM16.2422 19.7695H4.75781C4.19241 19.7695 3.73242 19.3095 3.73242 18.7441V2.25586C3.73242 1.69046 4.19241 1.23047 4.75781 1.23047H12.0996V4.7168C12.0996 5.50836 12.7436 6.15234 13.5352 6.15234H17.2676V18.7441C17.2676 19.3095 16.8076 19.7695 16.2422 19.7695Z" fill="white" fill-opacity="0.8"/>
<path d="M14.8887 8.20312H5.86523C5.52546 8.20312 5.25 8.47859 5.25 8.81836C5.25 9.15813 5.52546 9.43359 5.86523 9.43359H14.8887C15.2284 9.43359 15.5039 9.15813 15.5039 8.81836C15.5039 8.47859 15.2284 8.20312 14.8887 8.20312Z" fill="white" fill-opacity="0.8"/>
<path d="M14.8887 11.4844H5.86523C5.52546 11.4844 5.25 11.7598 5.25 12.0996C5.25 12.4394 5.52546 12.7148 5.86523 12.7148H14.8887C15.2284 12.7148 15.5039 12.4394 15.5039 12.0996C15.5039 11.7598 15.2284 11.4844 14.8887 11.4844Z" fill="white" fill-opacity="0.8"/>
<path d="M8.84789 14.7656H5.86523C5.52546 14.7656 5.25 15.0411 5.25 15.3809C5.25 15.7206 5.52546 15.9961 5.86523 15.9961H8.84789C9.18766 15.9961 9.46312 15.7206 9.46312 15.3809C9.46312 15.0411 9.18766 14.7656 8.84789 14.7656Z" fill="white" fill-opacity="0.8"/>
</g>
<defs>
<clipPath id="clip0">
<rect width="21" height="21" fill="white"/>
</clipPath>
</defs>
</svg>
