<svg width="21" height="21" viewBox="0 0 21 21" fill="none" xmlns="http://www.w3.org/2000/svg">
<g clip-path="url(#clip0)">
<path d="M3.1325 18.5465H15.6091L15.0132 16.6171L16.4386 17.8404L17.745 19.0111L20.125 21V2.16562C20.0655 0.994875 19.0575 0 17.808 0L3.13687 0.002625C1.88825 0.002625 0.875 0.99925 0.875 2.17V16.38C0.875 17.6146 1.8865 18.5465 3.1325 18.5465ZM12.362 4.97263L12.3331 4.98313L12.3436 4.97263H12.362ZM5.68488 6.083C7.28875 4.91575 8.77537 4.97175 8.77537 4.97175L8.89525 5.08987C6.93262 5.558 6.04275 6.43475 6.04275 6.43475C6.04275 6.43475 6.28075 6.31838 6.69637 6.14075C9.33975 5.10125 12.2264 5.1765 14.8986 6.4925C14.8986 6.4925 14.007 5.67263 12.1651 5.14762L12.3279 4.9875C12.5825 4.98837 13.93 5.03562 15.372 6.09C15.372 6.09 16.9855 8.84625 16.9855 12.2325C16.9321 12.1677 15.9845 13.6903 13.5459 13.7428C13.5459 13.7428 13.1329 13.2755 12.8389 12.8678C14.2651 12.4583 14.7989 11.6392 14.7989 11.6392C14.3307 11.9341 13.9037 12.1091 13.5572 12.2841C13.0244 12.5186 12.4906 12.6341 11.9577 12.7523C9.43425 13.1617 8.01762 12.4766 6.67887 11.9332L6.22125 11.7005C6.22125 11.7005 6.75413 12.5195 8.1235 12.929C7.76388 13.3394 7.40775 13.8057 7.40775 13.8057C4.97 13.748 4.081 12.2255 4.081 12.2255C4.081 8.834 5.68488 6.083 5.68488 6.083Z" fill="#E5E3E3"/>
<path d="M12.5194 11.1746C13.1415 11.1746 13.6481 10.6496 13.6481 10.0021C13.6481 9.35902 13.1441 8.83401 12.5194 8.83401V8.83664C11.8999 8.83664 11.3924 9.35989 11.3906 10.0074C11.3906 10.6496 11.8972 11.1746 12.5194 11.1746Z" fill="#E5E3E3"/>
<path d="M8.47885 11.1746C9.10097 11.1746 9.60759 10.6496 9.60759 10.0021C9.60759 9.35902 9.10447 8.83401 8.48235 8.83401L8.47885 8.83664C7.85672 8.83664 7.3501 9.35989 7.3501 10.0074C7.3501 10.6496 7.85672 11.1746 8.47885 11.1746Z" fill="#E5E3E3"/>
</g>
<defs>
<clipPath id="clip0">
<rect width="21" height="21" fill="white"/>
</clipPath>
</defs>
</svg>
