<svg width="21" height="21" viewBox="0 0 21 21" fill="none" xmlns="http://www.w3.org/2000/svg">
<path d="M19.8447 1.15517C19.0745 0.385104 18.1473 0 17.0624 0H3.93748C2.85294 0 1.92542 0.385104 1.15517 1.15517C0.385104 1.92538 0 2.85289 0 3.93747V17.0626C0 18.1472 0.385104 19.0747 1.15517 19.8447C1.92538 20.6149 2.85294 21 3.93748 21H6.99997C7.20032 21 7.35083 20.9931 7.45106 20.9797C7.55124 20.9659 7.65142 20.9067 7.75174 20.8017C7.85211 20.697 7.9021 20.5443 7.9021 20.3439C7.9021 20.3167 7.89971 20.0064 7.89521 19.414C7.89056 18.8214 7.88831 18.3521 7.88831 18.0057L7.57384 18.0604C7.37334 18.0968 7.1204 18.1129 6.81503 18.1083C6.5098 18.1037 6.19298 18.0719 5.86491 18.0126C5.53665 17.9533 5.23142 17.8166 4.94884 17.6026C4.66641 17.3882 4.4659 17.108 4.34738 16.7617L4.21062 16.4471C4.11949 16.2377 3.97602 16.0051 3.78002 15.7501C3.58402 15.4948 3.38582 15.3216 3.18532 15.2305L3.0896 15.1621C3.02586 15.1166 2.96662 15.0616 2.91189 14.9979C2.85725 14.934 2.81626 14.8701 2.78892 14.8065C2.76157 14.7426 2.78427 14.6901 2.85725 14.649C2.93023 14.608 3.06225 14.5877 3.25375 14.5877L3.52709 14.6287C3.70944 14.6651 3.93489 14.7744 4.20392 14.9568C4.47275 15.139 4.69375 15.376 4.86695 15.6675C5.0767 16.0413 5.3294 16.326 5.62577 16.522C5.9219 16.7182 6.22047 16.8161 6.5212 16.8161C6.82192 16.8161 7.08166 16.7933 7.3005 16.748C7.51911 16.7023 7.7242 16.6337 7.9157 16.5426C7.99773 15.932 8.22108 15.4623 8.58554 15.1343C8.06607 15.0795 7.59898 14.9976 7.18414 14.8881C6.76954 14.7787 6.3411 14.6011 5.8991 14.3549C5.45692 14.1087 5.09011 13.8036 4.79843 13.4388C4.5068 13.074 4.26746 12.5955 4.08075 12.0033C3.89395 11.4107 3.80052 10.727 3.80052 9.95232C3.80052 8.84954 4.16068 7.91058 4.8807 7.13592C4.54338 6.30652 4.57523 5.37695 4.97633 4.34691C5.24066 4.26483 5.63266 4.32641 6.15214 4.53151C6.6717 4.73675 7.05212 4.91225 7.29375 5.05788C7.53539 5.20355 7.72899 5.32671 7.87486 5.42708C8.72269 5.19009 9.59762 5.07162 10.4999 5.07162C11.4021 5.07162 12.2772 5.19009 13.1251 5.42708L13.6446 5.09896C14.0002 4.88012 14.4194 4.67962 14.9025 4.49741C15.3856 4.31516 15.7547 4.26497 16.01 4.34705C16.42 5.37709 16.4567 6.30666 16.1192 7.13601C16.8392 7.91077 17.1994 8.84968 17.1994 9.95246C17.1994 10.7273 17.106 11.4132 16.9192 12.0101C16.7325 12.6071 16.4911 13.0858 16.1947 13.4458C15.8985 13.8058 15.5293 14.1087 15.0873 14.355C14.6453 14.601 14.2169 14.7789 13.8021 14.888C13.3873 14.9975 12.9203 15.0798 12.4008 15.1345C12.8744 15.5445 13.1114 16.1915 13.1114 17.0757V20.3434C13.1114 20.4984 13.134 20.6237 13.1795 20.7194C13.2254 20.8151 13.2982 20.8809 13.3984 20.9177C13.4991 20.9541 13.5875 20.9768 13.6652 20.9859C13.7429 20.995 13.8543 20.9996 14.0002 20.9996H17.0627C18.1472 20.9996 19.0748 20.6145 19.8446 19.8443C20.6148 19.0741 21 18.1465 21 17.062V3.93747C20.9999 2.85289 20.6147 1.92523 19.8447 1.15517Z" fill="#E5E3E3"/>
</svg>
