<svg width="54" height="54" viewBox="0 0 54 54" fill="none" xmlns="http://www.w3.org/2000/svg">
<g clip-path="url(#clip0)">
<path d="M52.875 51.75H1.12504C0.504035 51.75 0 52.2539 0 52.8749C0 53.4959 0.504035 54 1.12504 54H52.8751C53.4961 54 54.0001 53.4959 54.0001 52.8749C54 52.2539 53.496 51.75 52.875 51.75Z" fill="white"/>
<path d="M10.125 38.25H3.37504C2.75404 38.25 2.25 38.754 2.25 39.375V52.875C2.25 53.4959 2.75404 54 3.37504 54H10.125C10.746 54 11.2501 53.4959 11.2501 52.8749V39.3749C11.2501 38.7539 10.746 38.25 10.125 38.25ZM9 51.75H4.50007V40.5H9.00011V51.75H9Z" fill="white"/>
<path d="M23.625 27H16.875C16.254 27 15.75 27.504 15.75 28.125V52.8751C15.75 53.4961 16.254 54.0001 16.875 54.0001H23.625C24.246 54.0001 24.7501 53.4961 24.7501 52.8751V28.125C24.7501 27.504 24.246 27 23.625 27ZM22.5 51.75H18V29.25H22.5V51.75Z" fill="white"/>
<path d="M37.125 31.5H30.375C29.754 31.5 29.25 32.004 29.25 32.625V52.875C29.25 53.496 29.754 54.0001 30.375 54.0001H37.125C37.746 54.0001 38.2501 53.496 38.2501 52.875V32.625C38.2501 32.0039 37.746 31.5 37.125 31.5ZM36 51.75H31.5V33.75H36V51.75Z" fill="white"/>
<path d="M50.625 18H43.875C43.254 18 42.75 18.504 42.75 19.125V52.875C42.75 53.496 43.254 54.0001 43.875 54.0001H50.625C51.246 54.0001 51.7501 53.496 51.7501 52.875V19.125C51.7501 18.5039 51.246 18 50.625 18ZM49.5 51.75H45V20.25H49.5V51.75Z" fill="white"/>
<path d="M6.75004 20.25C4.26825 20.25 2.25 22.2683 2.25 24.75C2.25 27.2318 4.26825 29.2501 6.75004 29.2501C9.23182 29.2501 11.2501 27.2318 11.2501 24.75C11.2501 22.2683 9.23182 20.25 6.75004 20.25ZM6.75004 27C5.50804 27 4.50007 25.9897 4.50007 24.75C4.50007 23.5103 5.50804 22.5001 6.75004 22.5001C7.99203 22.5001 9 23.5104 9 24.75C9 25.9897 7.99203 27 6.75004 27Z" fill="white"/>
<path d="M20.25 9C17.7683 9 15.75 11.0182 15.75 13.5C15.75 15.9818 17.7683 18.0001 20.25 18.0001C22.7318 18.0001 24.7501 15.9818 24.7501 13.5C24.7501 11.0182 22.7318 9 20.25 9ZM20.25 15.75C19.008 15.75 18.0001 14.7397 18.0001 13.5C18.0001 12.2602 19.008 11.2501 20.25 11.2501C21.492 11.2501 22.5 12.2604 22.5 13.5C22.5 14.7398 21.492 15.75 20.25 15.75Z" fill="white"/>
<path d="M33.75 13.5C31.2682 13.5 29.25 15.5183 29.25 18C29.25 20.4818 31.2682 22.5001 33.75 22.5001C36.2318 22.5001 38.2501 20.4818 38.2501 18C38.2501 15.5183 36.2318 13.5 33.75 13.5ZM33.75 20.25C32.508 20.25 31.5001 19.2397 31.5001 18C31.5001 16.7603 32.508 15.7501 33.75 15.7501C34.992 15.7501 36 16.7604 36 18C36 19.2397 34.992 20.25 33.75 20.25Z" fill="white"/>
<path d="M47.25 0C44.7682 0 42.75 2.01825 42.75 4.50004C42.75 6.98182 44.7682 9.00007 47.25 9.00007C49.7318 9.00007 51.7501 6.98182 51.7501 4.50004C51.7501 2.01825 49.7318 0 47.25 0ZM47.25 6.75C46.008 6.75 45.0001 5.73972 45.0001 4.50004C45.0001 3.26025 46.008 2.25007 47.25 2.25007C48.492 2.25007 49.5 3.26036 49.5 4.50004C49.5 5.73972 48.492 6.75 47.25 6.75Z" fill="white"/>
<path d="M45.6615 6.08846C45.2228 5.64971 44.5095 5.64971 44.0707 6.08846L35.3408 14.8184C34.902 15.2572 34.902 15.9705 35.3408 16.4092C35.5613 16.6274 35.8492 16.7377 36.1373 16.7377C36.423 16.7377 36.711 16.6297 36.9316 16.4092L45.6615 7.67925C46.1003 7.2405 46.1003 6.52721 45.6615 6.08846Z" fill="white"/>
<path d="M31.0298 15.4036L23.8028 13.3426C23.1975 13.1671 22.5833 13.5181 22.4145 14.1167C22.2435 14.7152 22.59 15.3362 23.1862 15.5072L30.4133 17.5681C30.5167 17.5973 30.6203 17.6108 30.7215 17.6108C31.2121 17.6108 31.662 17.2891 31.8038 16.7941C31.9748 16.1979 31.6284 15.5746 31.0298 15.4036Z" fill="white"/>
<path d="M18.4951 14.9018C18.1081 14.4158 17.4016 14.337 16.9156 14.7217L8.43302 21.4852C7.94702 21.8745 7.86602 22.5809 8.25531 23.0669C8.47806 23.3459 8.80659 23.49 9.13502 23.49C9.38024 23.49 9.62777 23.409 9.83481 23.247L18.3173 16.4835C18.8033 16.0942 18.8843 15.3878 18.4951 14.9018Z" fill="white"/>
</g>
<defs>
<clipPath id="clip0">
<rect width="54" height="54" fill="white"/>
</clipPath>
</defs>
</svg>
