<svg width="59" height="59" viewBox="0 0 59 59" fill="none" xmlns="http://www.w3.org/2000/svg">
<path d="M50.3596 8.64039C44.7878 3.06858 37.3797 0 29.5 0C25.5417 0 21.6996 0.771149 18.0803 2.2919L18.7539 3.89515C21.8933 2.57606 25.2118 1.85804 28.6304 1.75387V6.48297C22.9341 6.69546 17.7606 8.98575 13.8469 12.617L10.4967 9.26703C12.0985 7.75908 13.8909 6.42916 15.8514 5.32026L14.995 3.80665C10.5246 6.33559 6.77129 10.0053 4.14106 14.4192C1.43202 18.965 0 24.18 0 29.5C0 37.3797 3.06858 44.7879 8.64039 50.3596C14.2122 55.9313 21.6202 59 29.5 59C37.3797 59 44.7878 55.9314 50.3596 50.3596C55.9315 44.7878 59 37.3797 59 29.5C59 21.6203 55.9315 14.2122 50.3596 8.64039ZM57.2461 28.6304H52.517C52.3088 23.0503 50.1075 17.9715 46.6041 14.0874L49.9478 10.7438C54.3034 15.4887 57.0332 21.7478 57.2461 28.6304ZM30.3696 1.75398C37.4849 1.9742 43.934 4.88409 48.7323 9.49981L45.3921 12.84C41.4512 9.07897 36.1821 6.69996 30.3696 6.48297V1.75398ZM9.2683 10.4979L12.6172 13.8468C8.98586 17.7606 6.69558 22.9341 6.48309 28.6304H1.75318C1.96774 21.8057 4.70018 15.3723 9.2683 10.4979ZM1.75398 30.3696H6.48286C6.69973 36.1821 9.07886 41.4513 12.8399 45.3922L9.49981 48.7323C4.88409 43.934 1.97408 37.4848 1.75398 30.3696ZM28.6304 57.246C21.7478 57.0332 15.4887 54.3034 10.7439 49.9475L14.0875 46.604C17.9716 50.1074 23.0504 52.3087 28.6306 52.5169V57.246H28.6304ZM30.3697 57.246V52.5175H30.3696C33.0507 52.4186 35.6603 51.8635 38.1385 50.8603L37.486 49.2483C34.9489 50.2753 32.2621 50.796 29.5001 50.796C17.7574 50.796 8.20411 41.2426 8.20411 29.5C8.20411 17.7574 17.7573 8.204 29.5 8.204C41.2426 8.204 50.796 17.7574 50.796 29.5C50.796 37.2365 46.5891 44.377 39.8173 48.1345L40.6609 49.6552C42.3084 48.741 43.815 47.6411 45.1615 46.3912L48.4952 49.7249C43.7227 54.2099 37.3687 57.0295 30.3697 57.246ZM49.7249 48.4952L46.3908 45.1612C50.0885 41.1684 52.308 35.9369 52.5181 30.3696H57.246C57.0295 37.3687 54.2099 43.7228 49.7249 48.4952Z" fill="white"/>
<path d="M30.4242 11.0823H28.5771V12.8213H30.4242V11.0823Z" fill="white"/>
<path d="M30.4242 46.1785H28.5771V47.9175H30.4242V46.1785Z" fill="white"/>
<path d="M12.8763 28.6302H11.0291V30.3692H12.8763V28.6302Z" fill="white"/>
<path d="M17.4938 15.7012H15.6467V17.4402H17.4938V15.7012Z" fill="white"/>
<path d="M44.2773 16.6241H42.4302V18.3631H44.2773V16.6241Z" fill="white"/>
<path d="M44.2773 40.6367H42.4302V42.3757H44.2773V40.6367Z" fill="white"/>
<path d="M16.5699 40.6367H14.7227V42.3757H16.5699V40.6367Z" fill="white"/>
<path d="M47.9712 28.6302H46.124V30.3692H47.9712V28.6302Z" fill="white"/>
<path d="M20.1011 29.5L29.5001 42.032L38.899 29.5L29.5001 16.968L20.1011 29.5ZM29.5001 39.1336L22.275 29.5L29.5001 19.8664L36.7251 29.5L29.5001 39.1336Z" fill="white"/>
</svg>
