<svg xmlns="http://www.w3.org/2000/svg" width="58.25" height="60.375" viewBox="0 0 58.25 60.375">
  <defs>
    <style>
      .cls-1 {
        fill: #535353;
        fill-rule: evenodd;
      }
    </style>
  </defs>
  <path id="lamp" class="cls-1" d="M27.816-.03a1.344,1.344,0,0,1,1.353.58,32.6,32.6,0,0,1,.072,6.232,1.3,1.3,0,0,1-2.367,0A34.688,34.688,0,0,1,26.9.646,1.359,1.359,0,0,1,27.816-.03ZM7.358,8.4a1.5,1.5,0,0,1,.845.169,28.842,28.842,0,0,1,4.106,4.3,1.4,1.4,0,0,1-2.053,1.522A30.746,30.746,0,0,1,6.295,9.872,1.3,1.3,0,0,1,7.358,8.4ZM48.177,8.641a1.28,1.28,0,0,1,1.3,1.763c-0.318.745-2.18,2.277-2.826,2.923l-0.966.99a1.888,1.888,0,0,1-1.715.072,1.322,1.322,0,0,1-.145-1.787l1.425-1.4C46.118,10.338,46.938,9.093,48.177,8.641ZM27.284,12.554c8.689-.132,14.279,4.619,16.883,10.579a18.731,18.731,0,0,1,.7,12.415A15.451,15.451,0,0,1,40.4,42.7a14.5,14.5,0,0,0-3.647,3.816,10.038,10.038,0,0,0-1.135,3.744V52.02c0,2.993.369,5.67-1.159,7.2a3.859,3.859,0,0,1-2.271,1.135H28.033c-2.6,0-5.177.257-6.352-1.159C20.257,57.478,20.5,55.016,20.5,51.9q-0.012-1.075-.024-2.15a8.618,8.618,0,0,0-1.183-3.382,14.99,14.99,0,0,0-3.382-3.478,15.909,15.909,0,0,1-4.2-6.135C7.57,26.594,13.946,17.215,20.98,14.1a20.48,20.48,0,0,1,4.227-1.3ZM23.033,50.281H33.105c-0.045-3.22,2.232-6.661,4.009-8.14a16.116,16.116,0,0,0,2.15-1.908,21.016,21.016,0,0,0,2.174-3.068,14.757,14.757,0,0,0,1.4-3.889c1.9-8.026-3.536-14.721-8.574-16.932a20.937,20.937,0,0,0-5.748-1.28,12.975,12.975,0,0,0-6.908,1.546c-5.978,3.026-11.085,10.858-7.415,19.564a16.108,16.108,0,0,0,2.584,4.058,18.17,18.17,0,0,0,2.464,2.15A10.473,10.473,0,0,1,23.033,50.281Zm4.831-31.448a10.93,10.93,0,0,1,10.6,6.86c0.379,0.854,1.6,4.629.483,5.483a1.472,1.472,0,0,1-1.884-.241c-0.346-.506-0.2-1.631-0.338-2.319a9.127,9.127,0,0,0-1.183-3.043,8.97,8.97,0,0,0-4.952-3.84c-0.8-.245-2.886-0.21-3.43-0.676C26.2,20.227,27.032,19.134,27.864,18.833ZM-1.12,28.905H3.034a5.52,5.52,0,0,1,1.642.072,1.306,1.306,0,0,1,.7,1.594,1.2,1.2,0,0,1-.773.8,25.893,25.893,0,0,1-6.3-.193C-2.7,30.414-1.992,29.238-1.12,28.905Zm52.824,0h4.154a5.348,5.348,0,0,1,1.715.1,1.3,1.3,0,0,1,.652,1.522,1.234,1.234,0,0,1-.652.8,23.074,23.074,0,0,1-6.376-.1C50.126,30.509,50.809,29.274,51.7,28.905ZM10.884,45.885A1.278,1.278,0,0,1,12.261,47.6,30.67,30.67,0,0,1,8.3,51.682a1.911,1.911,0,0,1-1.618-.1,1.348,1.348,0,0,1-.169-1.642l1.353-1.353C8.758,47.7,9.638,46.384,10.884,45.885Zm33.718,0a1.506,1.506,0,0,1,.8.145l3.985,3.961a1.49,1.49,0,0,1-.29,1.763,2.3,2.3,0,0,1-1.618-.145,28.8,28.8,0,0,1-3.913-4.13A1.3,1.3,0,0,1,44.6,45.885ZM23.033,52.817c-0.016,1.468-.3,3.92.435,4.71,0.394,0.424,1.386.314,2.2,0.314,1.429,0,6.367.248,7.029-.29,0.638-.518.4-3.508,0.386-4.734H23.033Z"/>
</svg>
