<svg width="26" height="26" viewBox="0 0 26 26" fill="none" xmlns="http://www.w3.org/2000/svg">
<path d="M7.95056 10.9254L12.9999 5.876L18.0517 10.9276L20.9897 7.98959L12.9999 0L5.01278 7.9872L7.95066 10.9252L7.95056 10.9254ZM0 13L2.93809 10.0615L5.87598 12.9994L2.93788 15.9375L0 13ZM7.95056 15.0749L12.9999 20.124L18.0516 15.0725L20.9912 18.009L20.9897 18.0105L12.9999 26L5.01278 18.0128L5.00862 18.0086L7.95087 15.0746L7.95056 15.0749ZM20.1239 13.0012L23.062 10.0631L25.9999 13.001L23.0619 15.9391L20.1239 13.0012Z" fill="#F3BA2F"/>
<path d="M15.9797 12.9984H15.9809L12.9999 10.0172L10.7965 12.22L10.5433 12.4732L10.0213 12.9954L10.0171 12.9995L10.0213 13.0037L12.9999 15.9828L15.9812 13.0015L15.9826 12.9999L15.9799 12.9984" fill="#F3BA2F"/>
</svg>
