<svg xmlns="http://www.w3.org/2000/svg" xmlns:xlink="http://www.w3.org/1999/xlink"><symbol id="icon-analytics" viewBox="0 0 54 54"><g clip-path="url(#clip0)"><path d="M52.875 51.75H1.125a1.125 1.125 0 000 2.25h51.75a1.125 1.125 0 000-2.25z"/><path d="M10.125 38.25h-6.75c-.621 0-1.125.504-1.125 1.125v13.5c0 .62.504 1.125 1.125 1.125h6.75c.621 0 1.125-.504 1.125-1.125v-13.5c0-.621-.504-1.125-1.125-1.125zM9 51.75H4.5V40.5H9v11.25zM23.625 27h-6.75c-.621 0-1.125.504-1.125 1.125v24.75c0 .621.504 1.125 1.125 1.125h6.75c.621 0 1.125-.504 1.125-1.125v-24.75c0-.621-.504-1.125-1.125-1.125zM22.5 51.75H18v-22.5h4.5v22.5zM37.125 31.5h-6.75c-.621 0-1.125.504-1.125 1.125v20.25c0 .621.504 1.125 1.125 1.125h6.75c.621 0 1.125-.504 1.125-1.125v-20.25c0-.621-.504-1.125-1.125-1.125zM36 51.75h-4.5v-18H36v18zM50.625 18h-6.75c-.621 0-1.125.504-1.125 1.125v33.75c0 .621.504 1.125 1.125 1.125h6.75c.621 0 1.125-.504 1.125-1.125v-33.75c0-.621-.504-1.125-1.125-1.125zM49.5 51.75H45v-31.5h4.5v31.5zM6.75 20.25a4.505 4.505 0 00-4.5 4.5c0 2.482 2.018 4.5 4.5 4.5s4.5-2.018 4.5-4.5-2.018-4.5-4.5-4.5zm0 6.75a2.252 2.252 0 01-2.25-2.25c0-1.24 1.008-2.25 2.25-2.25S9 23.51 9 24.75 7.992 27 6.75 27zM20.25 9a4.505 4.505 0 00-4.5 4.5c0 2.482 2.018 4.5 4.5 4.5s4.5-2.018 4.5-4.5S22.732 9 20.25 9zm0 6.75A2.252 2.252 0 0118 13.5c0-1.24 1.008-2.25 2.25-2.25s2.25 1.01 2.25 2.25-1.008 2.25-2.25 2.25zM33.75 13.5a4.505 4.505 0 00-4.5 4.5c0 2.482 2.018 4.5 4.5 4.5s4.5-2.018 4.5-4.5-2.018-4.5-4.5-4.5zm0 6.75A2.252 2.252 0 0131.5 18c0-1.24 1.008-2.25 2.25-2.25S36 16.76 36 18s-1.008 2.25-2.25 2.25zM47.25 0a4.505 4.505 0 00-4.5 4.5c0 2.482 2.018 4.5 4.5 4.5s4.5-2.018 4.5-4.5S49.732 0 47.25 0zm0 6.75A2.252 2.252 0 0145 4.5c0-1.24 1.008-2.25 2.25-2.25S49.5 3.26 49.5 4.5s-1.008 2.25-2.25 2.25z"/><path d="M45.661 6.088a1.126 1.126 0 00-1.59 0l-8.73 8.73a1.126 1.126 0 001.59 1.591l8.73-8.73a1.126 1.126 0 000-1.59zM31.03 15.404l-7.227-2.061a1.114 1.114 0 00-1.389.774c-.17.598.176 1.22.772 1.39l7.227 2.061a1.126 1.126 0 00.617-2.165zM18.495 14.902a1.126 1.126 0 00-1.58-.18l-8.482 6.763a1.124 1.124 0 00.702 2.005c.245 0 .493-.081.7-.243l8.482-6.764c.486-.389.567-1.095.178-1.581z"/></g><defs><clipPath id="clip0"><path d="M0 0h54v54H0z"/></clipPath></defs></symbol><symbol id="icon-arr_down" viewBox="0 0 18 15"><path d="M9 15L.34 0h17.32L9 15z"/></symbol><symbol id="icon-blockchain" viewBox="0 0 57 57"><g clip-path="url(#clip0)"><path d="M37.9 19.545a3.102 3.102 0 00-1.587-.015l-1.732-3.028-1.451.83 1.732 3.028a3.1 3.1 0 00-.791 1.376 3.099 3.099 0 00.302 2.368l.87 1.52a3.1 3.1 0 001.888 1.461 3.091 3.091 0 001.587.015l.341.595a3.125 3.125 0 00-.49 3.744l.87 1.52a3.1 3.1 0 001.889 1.46 3.128 3.128 0 001.586.015l1.745 3.051 1.452-.83-1.746-3.052c.96-.97 1.2-2.501.49-3.743l-.87-1.52a3.125 3.125 0 00-3.475-1.475l-.34-.595c.375-.378.647-.848.79-1.375a3.1 3.1 0 00-.302-2.37l-.87-1.519a3.097 3.097 0 00-1.888-1.46zm4.634 9.626l.87 1.52c.241.422.246.917.055 1.329l-.486-.85-1.451.83.486.85a1.438 1.438 0 01-1.118-.722l-.87-1.52a1.447 1.447 0 01-.055-1.329l.498.871 1.452-.83-.499-.871c.452.044.876.299 1.118.722zm-3.757-5.335l-1.451.83.486.85a1.438 1.438 0 01-1.118-.722l-.87-1.52a1.437 1.437 0 01-.056-1.33l.5.872 1.45-.83-.498-.871c.452.044.876.298 1.118.721l.869 1.52a1.437 1.437 0 01.057 1.33l-.487-.85zM12.385 37.485l1.746-3.051a3.121 3.121 0 003.475-1.475l.87-1.52a3.1 3.1 0 00.301-2.369 3.103 3.103 0 00-.791-1.375l.34-.596a3.122 3.122 0 003.475-1.475l.87-1.52a3.124 3.124 0 00-.49-3.743l1.734-3.029-1.451-.83-1.733 3.03a3.125 3.125 0 00-3.476 1.474l-.869 1.52a3.125 3.125 0 00.49 3.743l-.341.596a3.102 3.102 0 00-1.587.014 3.1 3.1 0 00-1.889 1.461l-.87 1.52a3.126 3.126 0 00.49 3.743l-1.745 3.051 1.45.831zm5.312-13.03a1.44 1.44 0 01.14-1.1l.87-1.519a1.447 1.447 0 011.118-.721l-.499.871 1.451.83.499-.871c.19.412.186.906-.056 1.33l-.87 1.519a1.447 1.447 0 01-1.117.721l.485-.848-1.45-.831-.487.85a1.449 1.449 0 01-.084-.23zm-4.056 6.236l.87-1.52a1.438 1.438 0 011.118-.723l-.5.872 1.452.83.498-.87c.191.41.187.906-.055 1.329l-.87 1.52a1.447 1.447 0 01-1.117.721l.485-.85-1.45-.83-.486.85a1.446 1.446 0 01.055-1.33zM36.915 46.282l3.489-.01-.005-1.672-3.49.01a3.125 3.125 0 00-3.003-2.275h-.01l-1.75.005a3.125 3.125 0 00-3 2.292l-.686.002a3.096 3.096 0 00-.805-1.367 3.1 3.1 0 00-2.2-.908h-.009l-1.75.005a3.1 3.1 0 00-2.204.92 3.1 3.1 0 00-.797 1.373l-3.514.01.004 1.671 3.516-.01a3.125 3.125 0 003.004 2.275h.008l1.751-.005a3.1 3.1 0 002.204-.92c.385-.387.656-.858.797-1.372l.685-.002c.143.512.417.982.805 1.368.589.585 1.37.907 2.2.907h.008l1.751-.005a3.1 3.1 0 002.204-.92c.385-.387.656-.858.797-1.372zm-10.433.218a1.439 1.439 0 01-1.022.427l-1.751.004h-.004c-.486 0-.917-.24-1.18-.608l.98-.003-.006-1.672-.98.003a1.446 1.446 0 011.181-.615l1.751-.005h.005a1.437 1.437 0 011.18.609l-1.005.002.005 1.672 1.005-.003c-.047.067-.1.13-.159.188zm7.428.402l-1.751.005h-.005a1.44 1.44 0 01-1.18-.608l.98-.003-.005-1.672-.978.003c.26-.37.692-.614 1.18-.615l1.75-.005h.005c.485 0 .915.24 1.178.608l-1.003.003.005 1.672 1.004-.003a1.457 1.457 0 01-1.18.615zM29.358 23.58v-9.26l8.019-4.629-.837-1.447-8.018 4.629-8.018-4.63-.836 1.448 8.018 4.63v9.259h1.672z"/><path d="M53.511 37.558l-8.016 4.633-8.022-4.626-.835 1.448 8.022 4.626.004 9.26 1.672-.001-.004-9.26 8.016-4.633-.837-1.447zM12.338 52.839v-9.26l8.018-4.629-.835-1.447-8.019 4.629-8.02-4.63-.835 1.448 8.02 4.63v9.259h1.671zM18.692 8.163l9.83-5.676 9.83 5.676v10.403h1.672V7.197L28.522.557l-11.501 6.64v11.37h1.671V8.162zM28.522 27.119l4.618-2.666-.836-1.448-3.782 2.183-3.782-2.184-.836 1.448 4.618 2.667z"/><path d="M11.502 54.448l-9.83-5.676v-11.35l9.132-5.273-.836-1.448L0 36.456v13.281l11.502 6.641 10.615-6.129-.835-1.448-9.78 5.647zM23.003 41.238v-4.781l-4.487-2.591-.836 1.448 3.652 2.108v3.816h1.671zM56.994 36.51l-9.919-5.72-.835 1.448 9.082 5.238.006 11.35-9.827 5.681-9.61-5.542-.836 1.448 10.447 6.024L57 49.791l-.006-13.28zM38.548 33.886l-4.558 2.635.002 4.516h1.672l-.002-3.551 3.723-2.152-.837-1.448zM23.276 8.747L22.438 7.3l1.446-.838.838 1.446-1.447.839zm9.921-.344l-4.674-2.698-.426.247-.838-1.447 1.262-.731 5.512 3.182-.836 1.447zm-7.51-1.054l-.839-1.446 1.447-.838.838 1.446-1.447.838z"/><path d="M48.703 51.368l-.836-1.447 4.672-2.701v-.493l1.671-.003.003 1.459-5.51 3.185zm3.833-5.755l-.004-1.672 1.672-.004.004 1.672-1.672.004zm-.006-2.786l-.004-1.673 1.672-.003.004 1.671-1.672.005zM8.883 51.635L2.787 48.13v-1.748h1.671v.782l5.258 3.023-.833 1.45zm-6.096-6.369v-1.672h1.671v1.672H2.787zm1.671-2.786H2.787v-1.673h1.671v1.672z"/></g><defs><clipPath id="clip0"><path d="M0 0h57v57H0z"/></clipPath></defs></symbol><symbol id="icon-checked" viewBox="0 0 15.969 12.376"><path d="M14.958.015a.893.893 0 01.836 1.381l-7.061 8.46-1.681 2.018a.961.961 0 01-.936.508 4.006 4.006 0 01-1.554-1.3L.982 7.511C.591 7.12-.392 6.419.227 5.639s1.343-.048 1.745.354l4.18 4.189.028-.009 6.2-7.433 1.5-1.8a3.817 3.817 0 01.681-.782 1.544 1.544 0 01.397-.143z" fill-rule="evenodd"/></symbol><symbol id="icon-chip" viewBox="0 0 59 59"><path d="M50.36 8.64C44.788 3.07 37.38 0 29.5 0c-3.958 0-7.8.771-11.42 2.292l.674 1.603a27.545 27.545 0 019.876-2.141v4.729a22.947 22.947 0 00-14.783 6.134l-3.35-3.35A27.718 27.718 0 0115.85 5.32l-.856-1.513A29.653 29.653 0 004.141 14.419 29.465 29.465 0 000 29.5c0 7.88 3.069 15.288 8.64 20.86C14.212 55.93 21.62 59 29.5 59c7.88 0 15.288-3.069 20.86-8.64C55.932 44.788 59 37.38 59 29.5c0-7.88-3.069-15.288-8.64-20.86zm6.886 19.99h-4.729a22.943 22.943 0 00-5.913-14.543l3.344-3.343c4.355 4.745 7.085 11.004 7.298 17.886zM30.37 1.754c7.115.22 13.564 3.13 18.362 7.746l-3.34 3.34A22.955 22.955 0 0030.37 6.483V1.754zM9.268 10.498l3.35 3.349A22.948 22.948 0 006.482 28.63h-4.73a27.824 27.824 0 017.515-18.132zM1.754 30.37h4.729a22.955 22.955 0 006.357 15.022l-3.34 3.34C4.884 43.934 1.974 37.485 1.754 30.37zM28.63 57.246c-6.882-.213-13.141-2.943-17.886-7.299l3.344-3.343a22.943 22.943 0 0014.543 5.913v4.729zm1.74 0v-4.729a22.87 22.87 0 007.768-1.657l-.652-1.612a21.183 21.183 0 01-7.986 1.548c-11.743 0-21.296-9.553-21.296-21.296 0-11.743 9.553-21.296 21.296-21.296 11.743 0 21.296 9.553 21.296 21.296a21.325 21.325 0 01-10.979 18.635l.844 1.52a23.057 23.057 0 004.5-3.264l3.334 3.334c-4.772 4.485-11.126 7.304-18.125 7.521zm19.355-8.75L46.39 45.16a23.057 23.057 0 006.127-14.791h4.728c-.217 6.999-3.036 13.353-7.521 18.125z"/><path d="M30.424 11.082h-1.847v1.74h1.847v-1.74zM30.424 46.178h-1.847v1.74h1.847v-1.74zM12.876 28.63H11.03v1.74h1.847v-1.74zM17.494 15.701h-1.847v1.74h1.847V15.7zM44.277 16.624H42.43v1.74h1.847v-1.74zM44.277 40.637H42.43v1.739h1.847v-1.74zM16.57 40.637h-1.847v1.739h1.847v-1.74zM47.971 28.63h-1.847v1.74h1.847v-1.74zM20.101 29.5l9.4 12.532L38.898 29.5 29.5 16.968 20.101 29.5zm9.4 9.634L22.274 29.5l7.225-9.634 7.225 9.634-7.225 9.634z"/></symbol><symbol id="icon-community" viewBox="0 0 60 60"><path d="M59.063 38.438v-2.813c0-2.53-1.441-4.725-3.543-5.82 1.011-.86 1.667-2.126 1.667-3.555a4.693 4.693 0 00-4.687-4.688c-.116 0-.226.027-.34.035l-.956-1.91h2.233v-2.812c0-2.53-1.44-4.725-3.542-5.82 1.011-.86 1.667-2.126 1.667-3.555a4.693 4.693 0 00-4.687-4.688A4.693 4.693 0 0042.187 7.5c0 1.429.657 2.694 1.668 3.555-.01.006-.023.01-.033.017L34.41 7.15c.167-.48.276-.988.276-1.525A4.693 4.693 0 0030 .937a4.693 4.693 0 00-4.688 4.688c0 .537.11 1.044.277 1.525l-9.41 3.922c-.01-.006-.023-.01-.033-.017 1.01-.86 1.666-2.126 1.666-3.555a4.693 4.693 0 00-4.687-4.688A4.693 4.693 0 008.437 7.5c0 1.429.657 2.694 1.668 3.555a6.565 6.565 0 00-3.543 5.82v2.813h2.234l-.955 1.91c-.115-.01-.225-.035-.341-.035a4.693 4.693 0 00-4.688 4.687c0 1.429.657 2.694 1.668 3.555a6.565 6.565 0 00-3.543 5.82v2.813h6.91l1.71 3.558A4.642 4.642 0 008.437 45c0 1.429.657 2.694 1.668 3.555a6.565 6.565 0 00-3.543 5.82v2.813h13.125v-2.813c0-2.53-1.44-4.725-3.542-5.82.149-.127.292-.257.424-.401l8.657 3.607a6.53 6.53 0 00-1.788 4.489v2.813h13.125V56.25a6.531 6.531 0 00-1.79-4.489l8.658-3.607c.132.144.275.274.424.401a6.565 6.565 0 00-3.542 5.82v2.813h13.124v-2.813c0-2.53-1.44-4.725-3.542-5.82 1.011-.86 1.667-2.126 1.667-3.555a4.642 4.642 0 00-1.119-3.004l1.71-3.559h6.91zm-1.876-2.813v.938h-9.374v-.938a4.693 4.693 0 014.687-4.688 4.693 4.693 0 014.688 4.688zm-1.874-9.375a2.816 2.816 0 01-2.813 2.813 2.816 2.816 0 01-2.813-2.813 2.816 2.816 0 012.813-2.813 2.816 2.816 0 012.813 2.813zm-4.987-4.128c-1.487.788-2.514 2.333-2.514 4.128 0 1.06.367 2.027.962 2.813H33.726a4.64 4.64 0 00.917-2.38l6.995-6.995h7.47l1.218 2.434zM34.687 35.625v.938h-9.374v-.938A4.693 4.693 0 0130 30.937a4.693 4.693 0 014.688 4.688zM30 49.688a2.816 2.816 0 01-2.813-2.813A2.816 2.816 0 0130 44.062a2.816 2.816 0 012.813 2.813A2.816 2.816 0 0130 49.688zM27.187 26.25A2.816 2.816 0 0130 23.437a2.816 2.816 0 012.813 2.813A2.816 2.816 0 0130 29.063a2.816 2.816 0 01-2.813-2.813zm-1.875-10.313V15A4.693 4.693 0 0130 10.312 4.693 4.693 0 0134.688 15v.938h-9.376zm26.25.938v.938h-9.374v-.938a4.693 4.693 0 014.687-4.688 4.693 4.693 0 014.688 4.688zm-7.5-9.375a2.816 2.816 0 012.813-2.813A2.816 2.816 0 0149.688 7.5a2.816 2.816 0 01-2.813 2.813A2.816 2.816 0 0144.062 7.5zm-1.96 4.886a6.532 6.532 0 00-1.79 4.489v1.487l-6.018 6.019a4.7 4.7 0 00-3.356-2.724v-3.845h5.625V15c0-2.53-1.441-4.725-3.543-5.82.149-.127.292-.257.424-.401l8.657 3.607zM30 2.813a2.816 2.816 0 012.813 2.812A2.816 2.816 0 0130 8.438a2.816 2.816 0 01-2.813-2.813A2.816 2.816 0 0130 2.812zM26.98 9.18A6.565 6.565 0 0023.437 15v2.813h5.625v3.844a4.7 4.7 0 00-3.356 2.724l-6.018-6.02v-1.486a6.531 6.531 0 00-1.79-4.489l8.658-3.607c.132.144.275.274.424.401zM10.312 7.5a2.816 2.816 0 012.813-2.813A2.816 2.816 0 0115.938 7.5a2.816 2.816 0 01-2.813 2.813A2.816 2.816 0 0110.312 7.5zm-1.874 9.375a4.693 4.693 0 014.687-4.688 4.693 4.693 0 014.688 4.688v.938H8.438v-.938zm2.454 2.813h7.47l6.995 6.994a4.64 4.64 0 00.917 2.38H11.226a4.639 4.639 0 00.961-2.812c0-1.795-1.026-3.34-2.513-4.128l1.218-2.434zM4.688 26.25A2.816 2.816 0 017.5 23.437a2.816 2.816 0 012.813 2.813A2.816 2.816 0 017.5 29.063a2.816 2.816 0 01-2.813-2.813zm-1.875 9.375A4.693 4.693 0 017.5 30.937a4.693 4.693 0 014.688 4.688v.938H2.812v-.938zm11.25 2.813v-2.813c0-1.836-.76-3.495-1.98-4.688h13.333a6.539 6.539 0 00-1.959 4.28l-6.771 6.77c-.86-1.015-2.129-1.675-3.561-1.675a4.62 4.62 0 00-2.058.497l-1.14-2.371h4.136zm3.75 15.937v.938H8.438v-.938a4.693 4.693 0 014.687-4.688 4.693 4.693 0 014.688 4.688zM10.313 45a2.816 2.816 0 012.812-2.813A2.816 2.816 0 0115.938 45a2.816 2.816 0 01-2.813 2.813A2.816 2.816 0 0110.312 45zm7.5 0c0-.45-.084-.874-.202-1.285l5.826-5.827v.55h5.625v3.844a4.695 4.695 0 00-3.75 4.593c0 1.429.657 2.694 1.668 3.555-.01.006-.023.01-.033.017l-9.41-3.92c.166-.483.276-.99.276-1.527zm16.875 12.188h-9.376v-.938A4.693 4.693 0 0130 51.562a4.693 4.693 0 014.688 4.688v.938zm-1.634-6.741c-.01-.006-.023-.01-.033-.017 1.01-.86 1.666-2.126 1.666-3.555a4.696 4.696 0 00-3.75-4.593v-3.844h5.625v-.55l5.827 5.827A4.625 4.625 0 0042.187 45c0 .537.11 1.044.277 1.525l-9.41 3.922zm18.508 3.928v.938h-9.374v-.938a4.693 4.693 0 014.687-4.688 4.693 4.693 0 014.688 4.688zM44.063 45a2.816 2.816 0 012.813-2.813A2.816 2.816 0 0149.688 45a2.816 2.816 0 01-2.813 2.813A2.816 2.816 0 0144.062 45zm4.87-4.19a4.62 4.62 0 00-2.057-.498c-1.432 0-2.7.66-3.562 1.676l-6.771-6.772a6.539 6.539 0 00-1.959-4.279h13.333a6.54 6.54 0 00-1.978 4.688v2.813h4.135l-1.14 2.371z"/></symbol><symbol id="icon-doc" viewBox="0 0 21 21"><g clip-path="url(#clip0)" fill-opacity="0.8"><path d="M17.793 4.359L13.838.617A2.247 2.247 0 0012.288 0h-7.53a2.258 2.258 0 00-2.256 2.256v16.488A2.258 2.258 0 004.758 21h11.484a2.258 2.258 0 002.256-2.256V5.997c0-.617-.257-1.214-.706-1.638zm-1.196.563h-3.062a.205.205 0 01-.205-.205V1.83l3.267 3.09zm-.355 14.848H4.758c-.566 0-1.026-.46-1.026-1.026V2.256c0-.566.46-1.026 1.026-1.026H12.1v3.487c0 .791.644 1.435 1.435 1.435h3.733v12.592c0 .566-.46 1.026-1.026 1.026z"/><path d="M14.889 8.203H5.865a.615.615 0 000 1.23h9.024a.615.615 0 000-1.23zM14.889 11.484H5.865a.615.615 0 100 1.23h9.024a.615.615 0 000-1.23zM8.848 14.766H5.865a.615.615 0 000 1.23h2.983a.615.615 0 000-1.23z"/></g><defs><clipPath id="clip0"><path d="M0 0h21v21H0z"/></clipPath></defs></symbol><symbol id="icon-graph-fill" viewBox="0 0 84 82"><path d="M84 69H12V0H7v15H0v5h7v12H0v5h7v11H0v5h7v16H0v5h7v7h5v-7h18v8h5v-8h11v8h5v-8h12v8h5v-8h16v-5z"/><path d="M38.69 59c2.14 0 1.03.95 14.08-21.16l7.58 5.43c1.11.79 2.64.57 3.45-.52l17.89-23.82-4-3-16.42 21.88c-8.51-6.06-8.38-6.26-9.79-5.97-1.44.31-.7-.41-12.54 19.72C28.83 31.71 29.56 32 27.37 32H17v5h8.82c11.81 23.05 10.71 22 12.87 22z"/></symbol><symbol id="icon-graph" viewBox="0 0 61 60"><path fill-rule="evenodd" d="M5.089 0h3.625v50.483H61v3.67H49.375V60H45.75v-5.847h-8.714V60h-3.625v-5.847h-8V60h-3.625v-5.847H8.714v5.11H5.089v-5.11H0v-3.67h5.089V38.788H0v-3.669h5.089v-8.043H0v-3.67h5.089v-8.762H0v-3.669h5.089V0zm.715.737v10.975H.732v2.195h5.072v10.237H.732v2.195h5.072v9.517H.732v2.195h5.072V51.22H.732v2.195h5.072v5.11h2.178v-5.11h14.536v5.848h2.178v-5.848h9.429v5.848h2.179v-5.848h10.178v5.848h2.179v-5.848h11.607V51.22H7.982V.737H5.804zm6.535 26.339v-3.652l.018-.018H18.3c.741.001 1.953-.16 2.457.141.855.511 1.93 3.021 2.44 4.039l5.09 10.131 6.605-11.343c.542-.9 1.527-3.348 2.998-3.143.844.118 1.485.758 2.074 1.176l4.531 3.249h.018l9.01-12.098 2.144-2.88c.17-.232.54-.965.802-1.001l2.84 2.16-3.677 4.951-6.623 8.885-2.004 2.687c-.33.448-.629 1.011-1.081 1.334-.333.239-.947.414-1.499.264-.616-.168-1.066-.645-1.533-.983l-2.946-2.125-1.638-1.159-6.71 11.536c-.56.928-1.859 3.69-2.876 3.934-2.188.524-2.801-2.057-3.468-3.231l-6.501-12.854h-6.414zm.732-2.932v2.195h6.135l6.519 12.906c.453.803 1.352 3.691 2.858 3.196.531-.175 2.243-3.36 2.649-4.039l6.867-11.765 4.95 3.547c.401.289 1.292 1.205 1.969 1.089.841-.144 2.683-3.084 3.259-3.845l10.004-13.451-1.69-1.282-.053.018-11.886 15.961a13863.81 13863.81 0 01-4.723-3.389c-.5-.358-1.417-1.209-2.057-1.317-.974-.163-2.302 2.712-2.719 3.407l-6.919 11.87-5.437-10.817c-.467-.917-1.686-3.784-2.388-4.231-.259-.165-1.595-.053-2.022-.053h-5.316z"/></symbol><symbol id="icon-grid" viewBox="0 0 20 19.594"><path d="M0 0h5.7v5.586H0V0zm7.15 0h5.7v5.586h-5.7V0zm7.118 0H20v5.586h-5.732V0zM.768.755V4.82h4.18V.755H.766zm7.15 0V4.82h4.171V.755H7.916zm7.118 0V4.82h4.2V.755h-4.2zM0 7h5.7v5.586H0V7zm7.15 0h5.7v5.586h-5.7V7zm7.118 0H20v5.586h-5.732V7zm-13.5.756v4.064h4.18V7.757H.766zm7.15 0v4.064h4.171V7.757H7.916zm7.118 0v4.064h4.2V7.757h-4.2zM0 13.97h5.7v5.618H0V13.97zm7.15 0h5.7v5.618h-5.7V13.97zm7.118 0H20v5.618h-5.732V13.97zm-13.5.766v4.086h4.18v-4.086H.766zm7.15 0v4.086h4.171v-4.086H7.916zm7.118 0v4.086h4.2v-4.086h-4.2z" fill-rule="evenodd"/></symbol><symbol id="icon-hosting" viewBox="0 0 59 59"><path d="M6.453 20.281a2.765 2.765 0 100 5.531 2.765 2.765 0 000-5.53zm0 3.688a.922.922 0 110-1.844.922.922 0 010 1.844zM26.734 20.281H19.36a.922.922 0 000 1.844h7.375a.921.921 0 100-1.844zM26.734 23.047h-1.843a.921.921 0 100 1.844h1.843a.921.921 0 100-1.844zM16.594 20.281h-.922a.922.922 0 000 1.844h.922a.922.922 0 000-1.844zM6.453 7.375a2.766 2.766 0 100 5.531 2.766 2.766 0 000-5.531zm0 3.688a.922.922 0 110-1.844.922.922 0 010 1.844zM26.734 7.375H19.36a.922.922 0 000 1.844h7.375a.922.922 0 100-1.844zM26.734 10.14h-1.843a.922.922 0 000 1.844h1.843a.922.922 0 000-1.843zM16.594 7.375h-.922a.922.922 0 000 1.844h.922a.922.922 0 000-1.844zM6.453 33.188a2.766 2.766 0 100 5.53 2.766 2.766 0 000-5.53zm0 3.687a.922.922 0 110-1.844.922.922 0 010 1.844zM26.734 33.188H19.36a.922.922 0 100 1.843h7.375a.921.921 0 100-1.843zM26.734 35.953h-1.843a.922.922 0 000 1.844h1.843a.922.922 0 000-1.844zM16.594 33.188h-.922a.922.922 0 100 1.843h.922a.922.922 0 000-1.843zM6.453 46.094a2.766 2.766 0 100 5.532 2.766 2.766 0 000-5.532zm0 3.687a.922.922 0 110-1.843.922.922 0 010 1.843zM26.734 46.094H19.36a.922.922 0 100 1.843h7.375a.921.921 0 100-1.843zM26.734 48.86h-1.843a.921.921 0 100 1.843h1.843a.921.921 0 100-1.844zM16.594 46.094h-.922a.922.922 0 100 1.843h.922a.922.922 0 000-1.843z"/><path d="M56.234 23.676v-7.082a3.69 3.69 0 00-3.687-3.688h-9.219a3.691 3.691 0 00-3.687 3.688v7.082a10.077 10.077 0 00-1.801 4.902H35.03V10.141a.922.922 0 00-.922-.922h-3.687V7.375a2.77 2.77 0 00-2.766-2.766H3.688A2.77 2.77 0 00.921 7.375v5.531a2.77 2.77 0 002.765 2.766h23.97a2.77 2.77 0 002.765-2.766v-1.844h2.765v11.063h-2.765v-1.844a2.77 2.77 0 00-2.766-2.765H3.688A2.77 2.77 0 00.921 20.28v5.532a2.77 2.77 0 002.765 2.765h23.97a2.77 2.77 0 002.765-2.765v-1.844h2.765V35.03h-2.765v-1.843a2.77 2.77 0 00-2.766-2.766H3.688a2.77 2.77 0 00-2.766 2.765v5.532a2.77 2.77 0 002.765 2.765h23.97a2.77 2.77 0 002.765-2.765v-1.844h2.765v11.063h-2.765v-1.844a2.77 2.77 0 00-2.766-2.766H3.688a2.77 2.77 0 00-2.766 2.766v5.531a2.77 2.77 0 002.765 2.766h23.97a2.77 2.77 0 002.765-2.766v-1.844h3.687a.921.921 0 00.922-.922V30.422h2.809c.159 1.764.78 3.455 1.8 4.902v7.082a3.692 3.692 0 003.688 3.688h9.219a3.692 3.692 0 003.687-3.688v-7.082a10.12 10.12 0 000-11.648zm-27.656-10.77a.923.923 0 01-.922.922H3.688a.923.923 0 01-.922-.922V7.375a.923.923 0 01.921-.922h23.97a.923.923 0 01.921.922v5.531zm0 12.906a.923.923 0 01-.922.922H3.688a.923.923 0 01-.922-.922v-5.53a.923.923 0 01.921-.923h23.97a.923.923 0 01.921.922v5.532zm0 12.907a.923.923 0 01-.922.922H3.688a.923.923 0 01-.922-.922v-5.532a.923.923 0 01.921-.921h23.97a.923.923 0 01.921.922v5.53zm0 12.906a.923.923 0 01-.922.922H3.688a.923.923 0 01-.922-.922v-5.531a.923.923 0 01.921-.922h23.97a.923.923 0 01.921.922v5.531zm12.906-35.031a1.846 1.846 0 011.844-1.844h9.219a1.846 1.846 0 011.844 1.844v5.09a10.12 10.12 0 00-12.907 0v-5.09zm12.907 25.812a1.846 1.846 0 01-1.844 1.844h-9.219a1.846 1.846 0 01-1.844-1.844v-5.09c.097.081.196.158.297.235a.9.9 0 00.15.113 10.118 10.118 0 0012.014 0 .9.9 0 00.15-.113c.1-.077.199-.154.296-.235v5.09zm-6.453-11.984a4.61 4.61 0 014.609 4.61v1.363a8.277 8.277 0 01-9.219 0V35.03a4.614 4.614 0 014.61-4.61zm-1.844-3.688a1.844 1.844 0 113.687 0 1.844 1.844 0 01-3.687 0zm8.289 7.983a6.474 6.474 0 00-3.697-5.528 3.687 3.687 0 10-5.493.003 6.464 6.464 0 00-3.7 5.525 8.298 8.298 0 1112.89 0z"/></symbol><symbol id="icon-lamp" viewBox="0 0 58.25 60.375"><path d="M27.816-.03a1.344 1.344 0 011.353.58 32.6 32.6 0 01.072 6.232 1.3 1.3 0 01-2.367 0A34.688 34.688 0 0126.9.646a1.359 1.359 0 01.916-.676zM7.358 8.4a1.5 1.5 0 01.845.169 28.842 28.842 0 014.106 4.3 1.4 1.4 0 01-2.053 1.522 30.746 30.746 0 01-3.961-4.519A1.3 1.3 0 017.358 8.4zm40.819.241a1.28 1.28 0 011.3 1.763c-.318.745-2.18 2.277-2.826 2.923l-.966.99a1.888 1.888 0 01-1.715.072 1.322 1.322 0 01-.145-1.787l1.425-1.4c.868-.864 1.688-2.109 2.927-2.561zm-20.893 3.913c8.689-.132 14.279 4.619 16.883 10.579a18.731 18.731 0 01.7 12.415A15.451 15.451 0 0140.4 42.7a14.5 14.5 0 00-3.647 3.816 10.038 10.038 0 00-1.135 3.744v1.76c0 2.993.369 5.67-1.159 7.2a3.859 3.859 0 01-2.271 1.135h-4.155c-2.6 0-5.177.257-6.352-1.159-1.424-1.718-1.181-4.18-1.181-7.296l-.024-2.15a8.618 8.618 0 00-1.183-3.382 14.99 14.99 0 00-3.382-3.478 15.909 15.909 0 01-4.2-6.135C7.57 26.594 13.946 17.215 20.98 14.1a20.48 20.48 0 014.227-1.3zm-4.251 37.727h10.072c-.045-3.22 2.232-6.661 4.009-8.14a16.116 16.116 0 002.15-1.908 21.016 21.016 0 002.174-3.068 14.757 14.757 0 001.4-3.889c1.9-8.026-3.536-14.721-8.574-16.932a20.937 20.937 0 00-5.748-1.28 12.975 12.975 0 00-6.908 1.546c-5.978 3.026-11.085 10.858-7.415 19.564a16.108 16.108 0 002.584 4.058 18.17 18.17 0 002.464 2.15 10.473 10.473 0 013.792 7.899zm4.831-31.448a10.93 10.93 0 0110.6 6.86c.379.854 1.6 4.629.483 5.483a1.472 1.472 0 01-1.884-.241c-.346-.506-.2-1.631-.338-2.319a9.127 9.127 0 00-1.183-3.043 8.97 8.97 0 00-4.952-3.84c-.8-.245-2.886-.21-3.43-.676-.96-.83-.128-1.923.704-2.224zM-1.12 28.905h4.154a5.52 5.52 0 011.642.072 1.306 1.306 0 01.7 1.594 1.2 1.2 0 01-.773.8 25.893 25.893 0 01-6.3-.193c-1.003-.764-.295-1.94.577-2.273zm52.824 0h4.154a5.348 5.348 0 011.715.1 1.3 1.3 0 01.652 1.522 1.234 1.234 0 01-.652.8 23.074 23.074 0 01-6.376-.1c-1.071-.718-.388-1.953.503-2.322zm-40.82 16.98a1.278 1.278 0 011.377 1.715A30.67 30.67 0 018.3 51.682a1.911 1.911 0 01-1.618-.1 1.348 1.348 0 01-.169-1.642l1.353-1.353c.892-.887 1.772-2.203 3.018-2.702zm33.718 0a1.506 1.506 0 01.8.145l3.985 3.961a1.49 1.49 0 01-.29 1.763 2.3 2.3 0 01-1.618-.145 28.8 28.8 0 01-3.913-4.13 1.3 1.3 0 011.034-1.594zm-21.569 6.932c-.016 1.468-.3 3.92.435 4.71.394.424 1.386.314 2.2.314 1.429 0 6.367.248 7.029-.29.638-.518.4-3.508.386-4.734h-10.05z" fill-rule="evenodd"/></symbol><symbol id="icon-soc_discord" viewBox="0 0 21 21"><g clip-path="url(#clip0)"><path d="M3.132 18.547H15.61l-.596-1.93 1.426 1.223 1.306 1.171L20.125 21V2.166C20.065.995 19.058 0 17.808 0L3.137.003C1.888.003.875.999.875 2.17v14.21c0 1.235 1.012 2.167 2.257 2.167zm9.23-13.574l-.029.01.01-.01h.019zm-6.677 1.11c1.604-1.167 3.09-1.111 3.09-1.111l.12.118c-1.962.468-2.852 1.345-2.852 1.345s.238-.117.653-.294c2.644-1.04 5.53-.965 8.203.351 0 0-.892-.82-2.734-1.344l.163-.16c.255 0 1.602.048 3.044 1.102 0 0 1.613 2.756 1.613 6.143-.053-.065-1 1.457-3.44 1.51 0 0-.412-.468-.706-.875 1.426-.41 1.96-1.229 1.96-1.229-.468.295-.895.47-1.242.645-.533.235-1.066.35-1.6.468-2.523.41-3.94-.275-5.278-.819l-.458-.232s.533.819 1.902 1.228c-.36.41-.715.877-.715.877-2.438-.058-3.327-1.58-3.327-1.58 0-3.392 1.604-6.143 1.604-6.143z"/><path d="M12.52 11.175c.622 0 1.128-.525 1.128-1.173 0-.643-.504-1.168-1.129-1.168v.003c-.62 0-1.127.523-1.128 1.17 0 .643.506 1.168 1.128 1.168zM8.479 11.175c.622 0 1.129-.525 1.129-1.173 0-.643-.504-1.168-1.126-1.168l-.003.003c-.622 0-1.129.523-1.129 1.17 0 .643.507 1.168 1.129 1.168z"/></g><defs><clipPath id="clip0"><path d="M0 0h21v21H0z"/></clipPath></defs></symbol><symbol id="icon-soc_git" viewBox="0 0 21 21"><path d="M19.845 1.155C19.075.385 18.147 0 17.062 0H3.937C2.853 0 1.925.385 1.155 1.155S0 2.853 0 3.937v13.126c0 1.084.385 2.012 1.155 2.782S2.853 21 3.937 21H7c.2 0 .35-.007.451-.02.1-.014.2-.073.3-.178.101-.105.151-.258.151-.458l-.007-.93a188.68 188.68 0 01-.007-1.408l-.314.054c-.2.037-.454.053-.759.048a5.837 5.837 0 01-.95-.095 2.13 2.13 0 01-.916-.41 1.735 1.735 0 01-.602-.841l-.136-.315a3.416 3.416 0 00-.431-.697c-.196-.255-.394-.428-.595-.52l-.095-.068a1.005 1.005 0 01-.178-.164.759.759 0 01-.123-.191c-.027-.064-.005-.117.068-.158.073-.041.205-.061.397-.061l.273.04c.182.037.408.146.677.329.269.182.49.419.663.71.21.374.462.659.759.855.296.196.594.294.895.294.3 0 .56-.023.78-.068.218-.046.423-.114.615-.205.082-.611.305-1.08.67-1.409a9.366 9.366 0 01-1.402-.246 5.581 5.581 0 01-1.285-.533 3.68 3.68 0 01-1.1-.916c-.292-.365-.532-.844-.718-1.436-.187-.592-.28-1.276-.28-2.05 0-1.103.36-2.042 1.08-2.817-.338-.83-.306-1.76.095-2.79.265-.081.657-.02 1.176.186.52.205.9.38 1.142.526.241.146.435.269.58.37a9.704 9.704 0 012.626-.356c.902 0 1.777.118 2.625.355l.52-.328c.355-.219.774-.42 1.258-.602.483-.182.852-.232 1.107-.15.41 1.03.447 1.96.11 2.789.72.775 1.08 1.714 1.08 2.816 0 .775-.094 1.461-.28 2.058-.188.597-.429 1.076-.725 1.436-.296.36-.666.663-1.108.909-.442.246-.87.424-1.285.533-.415.11-.882.192-1.401.246.473.41.71 1.058.71 1.942v3.267c0 .155.023.28.069.376a.378.378 0 00.218.199c.101.036.19.059.267.068.078.009.19.014.335.014h3.063c1.084 0 2.012-.386 2.782-1.156.77-.77 1.155-1.698 1.155-2.782V3.937c0-1.084-.385-2.012-1.155-2.782z"/></symbol><symbol id="icon-soc_tw" viewBox="0 0 21 19"><path d="M21 2.989c-.78.342-1.613.57-2.48.68a4.28 4.28 0 001.893-2.38 8.604 8.604 0 01-2.73 1.042 4.304 4.304 0 00-7.447 2.944c0 .341.03.67.1.982-3.58-.175-6.746-1.89-8.874-4.503a4.334 4.334 0 00-.59 2.176c0 1.49.769 2.812 1.913 3.578a4.252 4.252 0 01-1.945-.53v.047a4.325 4.325 0 003.45 4.23c-.351.096-.733.142-1.13.142a3.81 3.81 0 01-.815-.074c.558 1.705 2.141 2.958 4.023 3a8.65 8.65 0 01-5.338 1.835c-.353 0-.691-.015-1.03-.059a12.12 12.12 0 006.604 1.932c7.923 0 12.254-6.562 12.254-12.25 0-.19-.007-.375-.016-.557A8.59 8.59 0 0021 2.989z"/></symbol> <view id="icon-analytics-view-grey" viewBox="0 0 54 54"/><view id="icon-analytics-view-light" viewBox="0 64 54 54"/><view id="icon-analytics-view-white" viewBox="0 128 54 54"/><view id="icon-arr_down-view-grey" viewBox="0 192 18 15"/><view id="icon-arr_down-view-light" viewBox="0 217 18 15"/><view id="icon-arr_down-view-white" viewBox="0 242 18 15"/><view id="icon-blockchain-view-grey" viewBox="0 267 57 57"/><view id="icon-blockchain-view-light" viewBox="0 334 57 57"/><view id="icon-blockchain-view-white" viewBox="0 401 57 57"/><view id="icon-checked-view-grey" viewBox="0 468 15.969 12.376"/><view id="icon-checked-view-light" viewBox="0 490.376 15.969 12.376"/><view id="icon-checked-view-white" viewBox="0 512.752 15.969 12.376"/><view id="icon-chip-view-grey" viewBox="0 535.1279999999999 59 59"/><view id="icon-chip-view-light" viewBox="0 604.1279999999999 59 59"/><view id="icon-chip-view-white" viewBox="0 673.1279999999999 59 59"/><view id="icon-community-view-grey" viewBox="0 742.1279999999999 60 60"/><view id="icon-community-view-light" viewBox="0 812.1279999999999 60 60"/><view id="icon-community-view-white" viewBox="0 882.1279999999999 60 60"/><view id="icon-doc-view-grey" viewBox="0 952.1279999999999 21 21"/><view id="icon-doc-view-light" viewBox="0 983.1279999999999 21 21"/><view id="icon-doc-view-white" viewBox="0 1014.1279999999999 21 21"/><view id="icon-graph-fill-view-grey" viewBox="0 1045.128 84 82"/><view id="icon-graph-fill-view-light" viewBox="0 1137.128 84 82"/><view id="icon-graph-fill-view-white" viewBox="0 1229.128 84 82"/><view id="icon-graph-view-grey" viewBox="0 1321.128 61 60"/><view id="icon-graph-view-light" viewBox="0 1391.128 61 60"/><view id="icon-graph-view-white" viewBox="0 1461.128 61 60"/><view id="icon-grid-view-grey" viewBox="0 1531.128 20 19.594"/><view id="icon-grid-view-light" viewBox="0 1560.722 20 19.594"/><view id="icon-grid-view-white" viewBox="0 1590.316 20 19.594"/><view id="icon-hosting-view-grey" viewBox="0 1619.9099999999999 59 59"/><view id="icon-hosting-view-light" viewBox="0 1688.9099999999999 59 59"/><view id="icon-hosting-view-white" viewBox="0 1757.9099999999999 59 59"/><view id="icon-lamp-view-grey" viewBox="0 1826.9099999999999 58.25 60.375"/><view id="icon-lamp-view-light" viewBox="0 1897.2849999999999 58.25 60.375"/><view id="icon-lamp-view-white" viewBox="0 1967.6599999999999 58.25 60.375"/><view id="icon-soc_discord-view-grey" viewBox="0 2038.0349999999999 21 21"/><view id="icon-soc_discord-view-light" viewBox="0 2069.035 21 21"/><view id="icon-soc_discord-view-white" viewBox="0 2100.035 21 21"/><view id="icon-soc_git-view-grey" viewBox="0 2131.035 21 21"/><view id="icon-soc_git-view-light" viewBox="0 2162.035 21 21"/><view id="icon-soc_git-view-white" viewBox="0 2193.035 21 21"/><view id="icon-soc_tw-view-grey" viewBox="0 2224.035 21 19"/><view id="icon-soc_tw-view-light" viewBox="0 2253.035 21 19"/><view id="icon-soc_tw-view-white" viewBox="0 2282.035 21 19"/> <use xlink:href="#icon-analytics" x="0" y="0" width="54" height="54" style="fill:#888888"/><use xlink:href="#icon-analytics" x="0" y="64" width="54" height="54" style="fill:#E5E3E3"/><use xlink:href="#icon-analytics" x="0" y="128" width="54" height="54" style="fill:#ffffff"/><use xlink:href="#icon-arr_down" x="0" y="192" width="18" height="15" style="fill:#888888"/><use xlink:href="#icon-arr_down" x="0" y="217" width="18" height="15" style="fill:#E5E3E3"/><use xlink:href="#icon-arr_down" x="0" y="242" width="18" height="15" style="fill:#ffffff"/><use xlink:href="#icon-blockchain" x="0" y="267" width="57" height="57" style="fill:#888888"/><use xlink:href="#icon-blockchain" x="0" y="334" width="57" height="57" style="fill:#E5E3E3"/><use xlink:href="#icon-blockchain" x="0" y="401" width="57" height="57" style="fill:#ffffff"/><use xlink:href="#icon-checked" x="0" y="468" width="15.969" height="12.376" style="fill:#888888"/><use xlink:href="#icon-checked" x="0" y="490.376" width="15.969" height="12.376" style="fill:#E5E3E3"/><use xlink:href="#icon-checked" x="0" y="512.752" width="15.969" height="12.376" style="fill:#ffffff"/><use xlink:href="#icon-chip" x="0" y="535.1279999999999" width="59" height="59" style="fill:#888888"/><use xlink:href="#icon-chip" x="0" y="604.1279999999999" width="59" height="59" style="fill:#E5E3E3"/><use xlink:href="#icon-chip" x="0" y="673.1279999999999" width="59" height="59" style="fill:#ffffff"/><use xlink:href="#icon-community" x="0" y="742.1279999999999" width="60" height="60" style="fill:#888888"/><use xlink:href="#icon-community" x="0" y="812.1279999999999" width="60" height="60" style="fill:#E5E3E3"/><use xlink:href="#icon-community" x="0" y="882.1279999999999" width="60" height="60" style="fill:#ffffff"/><use xlink:href="#icon-doc" x="0" y="952.1279999999999" width="21" height="21" style="fill:#888888"/><use xlink:href="#icon-doc" x="0" y="983.1279999999999" width="21" height="21" style="fill:#E5E3E3"/><use xlink:href="#icon-doc" x="0" y="1014.1279999999999" width="21" height="21" style="fill:#ffffff"/><use xlink:href="#icon-graph-fill" x="0" y="1045.128" width="84" height="82" style="fill:#888888"/><use xlink:href="#icon-graph-fill" x="0" y="1137.128" width="84" height="82" style="fill:#E5E3E3"/><use xlink:href="#icon-graph-fill" x="0" y="1229.128" width="84" height="82" style="fill:#ffffff"/><use xlink:href="#icon-graph" x="0" y="1321.128" width="61" height="60" style="fill:#888888"/><use xlink:href="#icon-graph" x="0" y="1391.128" width="61" height="60" style="fill:#E5E3E3"/><use xlink:href="#icon-graph" x="0" y="1461.128" width="61" height="60" style="fill:#ffffff"/><use xlink:href="#icon-grid" x="0" y="1531.128" width="20" height="19.594" style="fill:#888888"/><use xlink:href="#icon-grid" x="0" y="1560.722" width="20" height="19.594" style="fill:#E5E3E3"/><use xlink:href="#icon-grid" x="0" y="1590.316" width="20" height="19.594" style="fill:#ffffff"/><use xlink:href="#icon-hosting" x="0" y="1619.9099999999999" width="59" height="59" style="fill:#888888"/><use xlink:href="#icon-hosting" x="0" y="1688.9099999999999" width="59" height="59" style="fill:#E5E3E3"/><use xlink:href="#icon-hosting" x="0" y="1757.9099999999999" width="59" height="59" style="fill:#ffffff"/><use xlink:href="#icon-lamp" x="0" y="1826.9099999999999" width="58.25" height="60.375" style="fill:#888888"/><use xlink:href="#icon-lamp" x="0" y="1897.2849999999999" width="58.25" height="60.375" style="fill:#E5E3E3"/><use xlink:href="#icon-lamp" x="0" y="1967.6599999999999" width="58.25" height="60.375" style="fill:#ffffff"/><use xlink:href="#icon-soc_discord" x="0" y="2038.0349999999999" width="21" height="21" style="fill:#888888"/><use xlink:href="#icon-soc_discord" x="0" y="2069.035" width="21" height="21" style="fill:#E5E3E3"/><use xlink:href="#icon-soc_discord" x="0" y="2100.035" width="21" height="21" style="fill:#ffffff"/><use xlink:href="#icon-soc_git" x="0" y="2131.035" width="21" height="21" style="fill:#888888"/><use xlink:href="#icon-soc_git" x="0" y="2162.035" width="21" height="21" style="fill:#E5E3E3"/><use xlink:href="#icon-soc_git" x="0" y="2193.035" width="21" height="21" style="fill:#ffffff"/><use xlink:href="#icon-soc_tw" x="0" y="2224.035" width="21" height="19" style="fill:#888888"/><use xlink:href="#icon-soc_tw" x="0" y="2253.035" width="21" height="19" style="fill:#E5E3E3"/><use xlink:href="#icon-soc_tw" x="0" y="2282.035" width="21" height="19" style="fill:#ffffff"/></svg>